<?xml version="1.0" encoding="UTF-8"?><svg id="_Слой_2" xmlns="http://www.w3.org/2000/svg" width="395.43" height="563.18" viewBox="0 0 395.43 563.18"><defs><style>.cls-1,.cls-2,.cls-3,.cls-4,.cls-5,.cls-6,.cls-7,.cls-8,.cls-9,.cls-10,.cls-11,.cls-12,.cls-13,.cls-14,.cls-15,.cls-16,.cls-17,.cls-18,.cls-19,.cls-20{stroke-width:0px;}.cls-1,.cls-19{fill:#fbbc05;}.cls-2{fill:#1e282d;}.cls-3{opacity:.32;}.cls-3,.cls-15{fill:#5d6366;}.cls-4{fill:#171e22;}.cls-6{fill:#515b60;}.cls-7{fill:#31373a;}.cls-8{fill:#6b6b6b;}.cls-9{fill:#747c80;}.cls-10,.cls-11{fill:#b08404;}.cls-11{opacity:.65;}.cls-12{fill:#41494d;opacity:.33;}.cls-13{fill:#fff;}.cls-14{fill:#263238;}.cls-16{fill:#ebebeb;}.cls-17{fill:#af8303;}.cls-18{fill:#475054;}.cls-19{isolation:isolate;opacity:.2;}.cls-20{fill:#fcd050;}</style></defs><g id="_Слой_1-2"><path class="cls-16" d="M172.8,168.55h86.35c-1.38-2.33-6.29-9.93-16.17-13.41-6.68-2.35-12.53-1.73-15.43-1.21-.47-1.55-1.87-5.41-5.68-8.54-4.77-3.91-10.04-4-11.52-3.97-7.73.14-12.53,5.38-13.73,6.78-3.7,4.35-4.4,9.12-4.58,11-1.19-.45-3.46-1.14-6.31-.83-2.75.3-4.64,1.37-5.68,1.97-4.3,2.49-6.4,6.33-7.26,8.2Z"/><path class="cls-16" d="M252.9,124.74h86.35c-1.38-2.33-6.29-9.93-16.17-13.41-6.68-2.35-12.53-1.73-15.43-1.21-.47-1.55-1.87-5.41-5.68-8.54-4.77-3.91-10.04-4-11.52-3.97-7.73.14-12.53,5.38-13.73,6.78-3.7,4.35-4.4,9.12-4.58,11-1.19-.45-3.46-1.14-6.31-.83-2.75.3-4.64,1.37-5.68,1.97-4.3,2.49-6.4,6.33-7.26,8.2Z"/><path class="cls-16" d="M85.53,37.75H.35v-12.25c2.11.13,3.79.65,4.81,1.04.21-2.26,1.05-7.97,5.48-13.17,1.43-1.69,7.18-7.96,16.44-8.13,1.77-.03,8.09.07,13.8,4.76,4.56,3.75,6.24,8.37,6.81,10.23,2.35-.42,6.34-.9,11.16-.28,2.28.29,4.74.83,7.31,1.73,11.83,4.17,17.71,13.28,19.37,16.07Z"/><path class="cls-16" d="M95.1,88.88h52.77c-.84-1.42-3.84-6.07-9.88-8.2-4.08-1.44-7.66-1.06-9.43-.74-.29-.95-1.14-3.31-3.47-5.22-2.91-2.39-6.14-2.45-7.04-2.43-4.72.09-7.66,3.29-8.39,4.15-2.26,2.66-2.69,5.57-2.8,6.72-.73-.28-2.12-.69-3.86-.5-1.68.18-2.84.84-3.47,1.21-2.63,1.52-3.91,3.87-4.44,5.01Z"/><path class="cls-16" d="M146.82,40.71c.58-1.27,3.86-8.1,11.82-10.89,6.26-2.2,11.68-.58,13.38,0,.37-2.91,1.69-10,7.47-16.18,2.2-2.35,7.61-8.14,16.18-8.4,1.92-.06,9.02,0,14.62,5.6,4.73,4.72,5.45,10.45,5.6,12.13,4.74-4.2,11.29-5.42,16.8-3.11,6.27,2.63,8.39,8.67,8.71,9.64,1.13-.62,5.92-3.06,11.6-1.46,5.62,1.58,9.91,6.51,11.11,12.66h-117.29Z"/><path class="cls-16" d="M11.42,148.46c.54-1.18,3.58-7.5,10.95-10.08,5.8-2.03,10.82-.54,12.39,0,.34-2.7,1.57-9.26,6.91-14.98,2.04-2.18,7.04-7.53,14.98-7.78,1.78-.05,8.35,0,13.54,5.19,4.38,4.38,5.05,9.68,5.19,11.24,4.39-3.89,10.46-5.02,15.56-2.88,5.81,2.44,7.77,8.03,8.07,8.93,1.05-.57,5.49-2.83,10.74-1.35,5.2,1.47,9.17,6.02,10.29,11.72H11.42Z"/><path class="cls-16" d="M395.43,60.29v9.97h-94.85c1.03-2.25,3.54-6.85,8.69-9.83,1.24-.72,3.52-2,6.81-2.36,3.41-.38,6.13.44,7.56.98.21-2.25,1.05-7.97,5.48-13.17,1.06-1.25,4.48-5.01,9.95-6.95,1.92-.68,4.09-1.14,6.49-1.18,1.77-.03,8.09.08,13.8,4.76,4.56,3.75,6.24,8.37,6.8,10.23,3.47-.62,10.48-1.37,18.48,1.45,4.38,1.54,7.95,3.77,10.79,6.1Z"/><g id="animals_mobile"><g id="_облака"><path class="cls-16" d="M68.98,500.23H.35v-29.6c2.66-1.55,6.08-2.82,10.19-2.9,1.76-.04,8.09.07,13.79,4.76,4.57,3.74,6.24,8.37,6.81,10.23,3.46-.62,10.48-1.37,18.48,1.45,11.83,4.16,17.7,13.27,19.36,16.06Z"/><path class="cls-16" d="M17.4,368.93h103.43c-1.66-2.79-7.53-11.9-19.36-16.06-8-2.82-15.01-2.07-18.48-1.45-.57-1.86-2.24-6.49-6.8-10.23-5.71-4.69-12.03-4.79-13.8-4.76-9.26.17-15.01,6.44-16.44,8.13-4.43,5.2-5.27,10.92-5.48,13.18-1.42-.54-4.15-1.36-7.56-.99-3.29.36-5.56,1.65-6.8,2.36-5.15,2.98-7.66,7.58-8.69,9.83Z"/><path class="cls-16" d="M395.35,192.26v9.71h-49.4c-1.57-1.37-.03-4.18,3.11-6,.76-.44,2.15-1.23,4.15-1.45,2.08-.22,3.75.28,4.62.61.13-1.38.64-4.87,3.35-8.05.17-.21.44-.52.82-.89h0c1.52-1.51,4.68-3.98,9.21-4.07.2,0,.51,0,.89.02,1.63.09,4.7.57,7.53,2.89,2.54,2.08,3.62,4.62,4.04,5.9.04.13.08.24.11.34.23-.04.49-.08.77-.12h0c2.3-.33,6.16-.52,10.51,1.01.09.03.18.06.27.1Z"/><path class="cls-16" d="M164.26,399.23h103.43c-1.66-2.79-7.53-11.9-19.36-16.06-8-2.82-15.01-2.07-18.48-1.45-.57-1.86-2.24-6.49-6.8-10.23-5.71-4.69-12.03-4.79-13.8-4.76-9.26.17-15.01,6.44-16.44,8.13-4.43,5.2-5.27,10.92-5.48,13.18-1.42-.54-4.15-1.36-7.56-.99-3.29.36-5.56,1.65-6.8,2.36-5.15,2.98-7.66,7.58-8.69,9.83Z"/><path class="cls-16" d="M169.7,255.66h103.43c-1.66-2.79-7.53-11.9-19.36-16.06-8-2.82-15.01-2.07-18.48-1.45-.57-1.86-2.24-6.49-6.8-10.23-5.71-4.69-12.03-4.79-13.8-4.76-9.26.17-15.01,6.44-16.44,8.13-4.43,5.2-5.27,10.92-5.48,13.18-1.42-.54-4.15-1.36-7.56-.99-3.29.36-5.56,1.65-6.8,2.36-5.15,2.98-7.66,7.58-8.69,9.83Z"/><path class="cls-16" d="M139.75,547.17c.27-.58,1.76-3.69,5.39-4.96,2.85-1,5.32-.27,6.1,0,.17-1.33.77-4.56,3.4-7.37,1-1.07,3.47-3.71,7.37-3.83.88-.03,4.11,0,6.66,2.55,2.16,2.15,2.48,4.76,2.55,5.53,2.16-1.91,5.15-2.47,7.66-1.42,2.86,1.2,3.82,3.95,3.97,4.39.52-.28,2.7-1.39,5.29-.67,2.56.72,4.51,2.96,5.06,5.77h-53.44Z"/><path class="cls-16" d="M328.57,444.22c.3-.66,2-4.18,6.11-5.63,3.24-1.13,6.03-.3,6.91,0,.19-1.5.88-5.17,3.86-8.36,1.14-1.22,3.93-4.2,8.36-4.34.99-.03,4.66,0,7.55,2.89,2.44,2.44,2.82,5.4,2.89,6.27,2.45-2.17,5.83-2.8,8.68-1.61,3.24,1.36,4.33,4.48,4.5,4.98.59-.32,3.06-1.58,5.99-.75,2.9.82,5.12,3.36,5.74,6.54h-60.6Z"/><path class="cls-16" d="M277.18,300.26c.57-1.24,3.75-7.85,11.46-10.56,6.07-2.13,11.32-.56,12.97,0,.36-2.82,1.64-9.7,7.24-15.68,2.13-2.28,7.38-7.89,15.68-8.14,1.86-.06,8.75,0,14.18,5.43,4.59,4.58,5.28,10.13,5.43,11.76,4.6-4.07,10.95-5.26,16.29-3.02,6.08,2.55,8.13,8.4,8.45,9.35,1.1-.6,5.74-2.97,11.25-1.42,5.44,1.54,9.6,6.31,10.77,12.27h-113.72Z"/><path class="cls-16" d="M217.56,487.98c.42-.92,2.79-5.85,8.54-7.87,4.53-1.59,8.44-.42,9.67,0,.27-2.1,1.22-7.23,5.4-11.69,1.59-1.7,5.5-5.88,11.69-6.07,1.39-.04,6.52,0,10.57,4.05,3.42,3.41,3.94,7.55,4.05,8.77,3.43-3.03,8.16-3.92,12.14-2.25,4.53,1.9,6.06,6.26,6.29,6.97.82-.45,4.28-2.21,8.38-1.05,4.06,1.14,7.16,4.7,8.03,9.15h-84.75Z"/><path class="cls-16" d="M9.67,227.56c.25-.55,1.68-3.51,5.13-4.72,2.72-.95,5.06-.25,5.8,0,.16-1.26.73-4.34,3.24-7.01.95-1.02,3.3-3.53,7.02-3.64.83-.03,3.91,0,6.34,2.43,2.05,2.05,2.36,4.53,2.43,5.26,2.06-1.82,4.9-2.35,7.28-1.35,2.72,1.14,3.64,3.76,3.78,4.18.49-.27,2.57-1.33,5.03-.63,2.44.69,4.3,2.82,4.82,5.49H9.67Z"/><path class="cls-16" d="M52.07,557.21c.03-2.57,99.85-3.34,145.83-3.4,55.67-.07,160.95.72,160.98,3.4.03,2.34-80.59,6.25-162.27,5.95-71.67-.26-144.56-3.76-144.53-5.95Z"/></g><path class="cls-17" d="M41.06,264.84c12.93-11.37,34.82-11.91,50.74,7.5,12.74,15.53,14.44,30.19,14.19,39.87-.41,16.23-6.6,20.89-9.69,25.38,0,0,3.18.77,4.27,3.52l-7.41,5.18c-1.78-1.78-1.98-3.21-1.57-5.88-3.01,1.18-5.29,2.89-13,3.01-17.18.63-32.2-11.81-41.83-25.58-10.1-14.45-14.95-36.06,4.31-53Z"/><path class="cls-14" d="M91.42,340.82l-.06-.03c-.37-.14-.54-.59-.35-.94,1.22-2.21,3.68-2.8,4.92-2.96.39-.05.73.26.74.66v.07c0,.34-.24.63-.58.67-.97.13-2.92.59-3.85,2.21-.17.29-.51.43-.82.31Z"/><path class="cls-14" d="M106.02,374.17h-2c0-14.91-8.92-31.27-9.01-31.43l1.7-1.2c.38.69,9.32,17.06,9.32,32.64Z"/><path class="cls-14" d="M115.73,362.62l-1.62-1.17c7.58-10.5,10.09-37.12,10.1-37.33l2,.09c-.04.88-2.54,27.42-10.47,38.41Z"/><path class="cls-1" d="M111.36,205.41c22.6-2.48,41.5,10.55,49.03,40.25,6.13,24.18-.57,55.99-24.47,68.98-1.97,1.07-8.16,3.73-8.16,3.73,0,0,3.54,3.04,3.23,6.75l-11.84,1.5c-1.1-2.86,1.49-7.09,1.49-7.09-12.09-1.66-18.8-5.56-28.66-14.74-8.45-7.87-16.98-19.54-19.05-38.26-3.87-34.96,12.69-58.29,38.43-61.12Z"/><path class="cls-20" d="M100.87,216.57c10.13-10.13,23.88-6.4,33.41,1.21,10.74,7.73,18.39,17.05,12.13,31.3-1.82,3.51-4,6.4-7.2,7.74-5.63,2.04-12.12,1.39-17.03-2.11-3.04-2.08-3.67-4.58-6.19-8.09-5.32-7.52-10.6-7.87-16.77-10.43-3.51-1.51-4.05-5.47-3.72-8.91.45-4.27,2.13-7.2,5.29-10.63l.08-.08Z"/><path class="cls-14" d="M120.54,320.16h0c-.32-.31-.33-.89-.01-1.2,1.07-1.03,3.58-2.79,7.15-1.3.36.15.53.63.38,1.04h0c-.14.39-.49.57-.81.43-3.03-1.26-5.09.24-5.89,1.03-.24.23-.57.23-.81,0Z"/><path class="cls-1" d="M69.86,239.4h0c-.48-.07-.82-.52-.74-1,2.13-13.57,7.78-21.41,12.2-25.63,3.67-3.5,7.06-5.13,8.63-5.75.48-.19,1.02.07,1.17.57l.23.79-.24-.84.02.06c.13.43-.09.89-.51,1.06-3.26,1.33-16.28,7.94-19.75,30.01-.07.48-.51.81-.99.74Z"/><path class="cls-1" d="M94.35,206.04l-.2-.32c-.15-.24-.07-.56.19-.68,1-.49,2.06-.59,2.67-.6.28,0,.5.24.47.51l-.03.38c-.02.24-.22.42-.46.43-.48.01-1.3.09-2.04.45-.21.1-.47.03-.59-.17Z"/><path class="cls-1" d="M180.13,483.7c-.76,1.43-2.39,3.21-5.06,5.21-3.33,2.64-8.31,2.3-9.77,2.64-.16.04-.12.16-.02.22,2.2,1.2,6.8.24,6.86.62.09.55-8.29,5.88-17.98,2.75-3.61-1.17-6.34-3.2-8.2-5.05-1.11-1.1-1.91-2.13-2.41-2.82-.01-.02-.02-.03-.03-.05,0,0,0,0,0,0-.03-.04-.06-.07-.08-.09-.02-.02-.04-.03-.06-.03-.01,0-.03,0-.04.01-.04.02-.09.06-.16.14l-15.87,17.15c-1.04,1.24-2.54,1.98-3.91,1.73-2.08-.38-3.82-2.99-3.16-6.02.44-1.86.89-4.1,1.53-5.98h-.03c-.08,0-.33.02-.61.05-.42.04-.88.07-1.36.08-1.88.07-4.21-.05-6.83-.57-2.65-.53-4.84-1.37-6.5-2.17,0,0,0,0,0,0-.22-.11-.73-.3-.73-.3-.02.01-.03.02-.05.04-3.46,2.53-8.45,8.03-11.34,12.39-1.68,2.53-3.84,2.53-5.95,1.66-2.24-1.22-2.86-5.3-1.64-8.93.66-1.96,2.22-4.24,3.66-4.99,0,0-3.86-3.01-4.77-8.8-.8-5.04,1.83-9.21,2.87-10.35,0,0,.02-.02.02-.03v-.05s-.31-1.01-.42-1.36c-.72-2.29-1.4-4.98-1.85-8.01-.2-1.33-.33-2.54-.41-3.73-.02-.34-.04-.67-.06-1.01v-.03c-.04-.84-.05-1.7-.05-2.6,0,0,0,0,0,0-.15.1-1.96,1.63-3.5,2.42-1.32.67-3.41,1.55-5.73.98-.23-.06-3.05-.75-3.56-2.83-.63-2.56,1.53-2.91,2.23-6.65.4-2.68-.15-3.35.7-7.55.35-1.72,2.61-11.76,7.21-16.15.12-.11.08-.31-.07-.36-1.82-.66-5.65-2.36-8.59-6.37-4.22-5.75-3.57-12.09-3.28-13.93.02-.15-.1-.28-.25-.26-3.18.38-7.62.42-12.49-1.17-3.32-1.08-8.33-2.72-10.95-7.45-.64-1.15-2.47-4.45-1.24-7.22,1.05-2.38,3.95-3.45,12.49-4.66,16.5-2.35,17.37-1.45,23.35-3.32,3.81-1.19,2.91-4.1,10.96-7.59,3.85-1.67,7.74-.81,10.26-.23l21.2-22.87c.55-.61,3.32-3.55,6.55-3.08,4.39.63,6.04,7.04,6.47,8.73,1.71,6.68-1.13,12.47-2.18,14.6-3.41,6.95-9.08,10.5-11.74,11.92-.04.02-.05.07-.01.1,1.56,1.46,3.76,3.77,5.81,7.01,2.19,3.47,4.9,7.77,4.66,13.47-.07,1.74-.35,4.94-2.8,8.85-.03.05-.2.32-.2.32l1.42,5.51c.01.05.12.4.29.95.82,2.62,3.12,9.9,4.05,12.95.14.46.25.83.31,1.06,1.39,4.9,4.88,13.54,7.46,23.48,1.08,4.14,2.35,9.86,3.24,16.84.03.21.08.42.17.61,0,.01,0,.02.01.03,0,0,0,0,0,0,.05.12.12.24.2.35.48.66,1.22,1.7,2.27,2.87.02.02.04.05.06.07,0,0,0,0,0,0,2.55,2.85,6.82,6.48,13.15,7.66,7.7,1.43,13.68-.1,16.25-1.1.17-.06.33.11.24.27Z"/><path class="cls-13" d="M96.98,380.98c-1.81.59-1.37,3.11-1.17,4.6.32,1.94.65,3.68,1.08,5.9.6,3.26,1.66,7.11.82,10.28-.83,2.3-3.09,4.16-5.3,5.08-2.91,1.35-6.48,1.71-9.42,3.14-4.38,1.82-3.96,7.4-1.61,10.67,3,4.23,8.02,5.63,12.76,6.08,4,.47,8.28.44,10.98,0,3.39-.51,6.79-1.35,10.06-2.87,5.39-2.69,11.83-6.95,12.68-13.44.46-3.44-.74-8.49-4.69-9.08-3.74-.58-10.56,2.05-15.11.43-5.08-1.99-5.53-6.11-6.53-10.88-.51-2.46-.93-4.97-1.48-7.02-.33-1.4-1.38-3.21-3.03-2.9h-.04Z"/><g id="_глаз_правый"><ellipse class="cls-14" cx="108.55" cy="394.3" rx="2.94" ry="3.94" transform="translate(-55.54 19.69) rotate(-8.26)"/><ellipse class="cls-13" cx="110.03" cy="393.18" rx=".79" ry="1.13" transform="translate(-55.36 19.89) rotate(-8.26)"/></g><g id="_глаз_левый"><ellipse class="cls-14" cx="91.21" cy="398.55" rx="2.94" ry="3.94" transform="translate(-18.88 4.8) rotate(-2.73)"/><ellipse class="cls-13" cx="92.09" cy="397.43" rx=".79" ry="1.13" transform="translate(-56.16 17.36) rotate(-8.26)"/></g><path id="_нос" class="cls-14" d="M102.07,406.25c1.74-.42,3.46-.71,5.76-.7,1.51.01,2.69.26,3.01,1.28.37,1.16-1.24,6.02-6.51,7.22-4.91,1.12-8.1-1.96-8.5-2.6-.28-.45-.66-1.38-.19-2.11.98-1.5,4.69-2.68,6.43-3.1Z"/><path id="_губы" class="cls-14" d="M90.52,416.37c.07-1.17,1.09-1.88,2.23-1.82,1.53.08,3.13,1.84,4.79,2.36.97.3,5.45.35,7.71-.33,1.82-.53,3.89-1.87,4.85-3.09,1.51-1.44,1.92-4.84,3.42-5.86.83-.57,2.94-.59,2.94.3,0,.76-.84.43-1.52.41-.54-.05-.97.25-1.23.7-.78,1.45-.98,3.48-1.53,5.15-.63,1.92-1.56,4.12-3.94,5.57-3.53,2.12-7.97,1.09-10.22-.14-.79-.36-1.58-.81-2.27-1.35-1.25-.94-1.79-1.81-2.25-2.21-.39-.37-1.02-.27-1.43.15-.17.18-.28.4-.44.59-.29.4-1.16.34-1.11-.43Z"/><g id="_язык"><path class="cls-1" d="M106.72,424.2c-1.44,1.7-3.61,1.68-4.2,1.69-.54.01-3.12-.12-4.4-2.06-.63-.98-.85-2.2-.9-3.5-.05-1.19.19-2.12.34-2.77,1.13.16,2.61.27,4.35.11h.01c.07,0,.14-.01.21-.01.1-.02.2-.03.29-.04h.01c1.71-.2,3.12-.6,4.19-.98.39.64,1,1.87,1.09,3.52.06.99.15,2.68-.99,4.04Z"/><path class="cls-8" d="M102.18,422.26c-.6-2.16-.42-4.09-.27-4.59l.52-.05c-.2.9-.18,3.11.3,4.5.12.36-.44.52-.55.14Z"/></g><path class="cls-20" d="M107.47,379.86c-1.57-1.87-.18-4.65.82-6.68,1.73-3.45,3.99-6.78,6.24-9.9,2.23-3.05,4.46-6.09,7.18-8.76,2.88-2.7,7.94-6.95,11.75-4.08,4.35,3.79,2.7,12.84.74,17.64-2.65,6.31-7.39,12.33-14.06,14.33-4.08,1.27-9.92.7-12.66-2.53l-.02-.02Z"/><path class="cls-20" d="M47.98,390.4c1.19-2.15,5.95-4.62,15.52-5.23,12.3-.79,20.28,1.2,20.62,5.62.41,5.37-6.66,10.61-11.14,12.18-5.93,2-13.31,1.49-18.84-1.92-3.42-2.07-8.67-6.11-6.17-10.64Z"/><path class="cls-14" d="M136.75,431.55c-.47,1.72-1.55,4.84-2.62,6.67-1.96,3.33-4.62,6.2-6.7,6.93,0,0,.69-3.75.59-7.81-.06-2.47-.36-4.13-.71-5.38-.04-.15-.32-.97-.32-.97,1.05-1.49,2.36-3.63,3.38-5.86.76-1.67,1.81-4.78,2.33-6.52.82,2.62,3.12,9.9,4.05,12.95Z"/><path class="cls-11" d="M94.44,435.91c-.11,1.15-.41,2.34-.82,3.58-.31.93-.67,1.9-1.06,2.89-.74,1.88-1.54,3.56-2.33,5.03-.1.19-.12.42-.06.63.22.64.55,1.91.31,3.42-.06.39-.16.79-.31,1.2-.78,2.18-2.99,4.58-4.41,5.37v-.03c-.04-.84-.05-1.7-.05-2.6.05-.05.1-.09.14-.13,1.15-1.15,1.6-3.14,1.69-3.79.05-.34.04-.65,0-.95,0-.05-.01-.1-.02-.15,0-.06-.01-.12-.02-.18h0c-.02-.2-.06-.46-.09-.81,0-.02,0-.04,0-.06-.01-.22-.01-.46.02-.71h0c.02-.19.06-.39.12-.6.08-.28.18-.52.28-.74.09-.2.19-.37.28-.51.05-.08.1-.15.15-.21.01-.02.02-.03.03-.04.22-.35.44-.69.66-1.04.02-.03.04-.06.06-.1.05-.08.1-.16.16-.24.05-.07.1-.15.15-.22.38-.59.78-1.21,1.18-1.84.02-.03.03-.06.05-.08.11-.18.22-.36.33-.54.14-.23.28-.46.41-.69.06-.1.12-.2.18-.31.16-.27.32-.54.47-.8.05-.09.1-.17.15-.26.08-.14.16-.28.24-.42.05-.09.1-.17.14-.26.05-.08.09-.16.13-.23.69-1.26,1.29-2.47,1.77-3.62l.07.05Z"/><path class="cls-10" d="M105.56,491.33c-3.46,2.53-8.45,8.03-11.34,12.39-1.68,2.53-3.84,2.53-5.95,1.66-2.24-1.22-2.86-5.3-1.64-8.93.66-1.96,2.22-4.24,3.66-4.99,0,0-3.86-3.01-4.77-8.8-.8-5.04,1.83-9.21,2.87-10.35,1.09,3.49,5.26,13.94,17.16,19.03Z"/><path class="cls-5" d="M123.18,460.68c-1.96-1.37-1.82-5.09-1.76-5.9,0-.08.08-.14.16-.14l.5.05c.08,0,.14.08.13.16-.05.73-.22,3.96,1.34,5.08.06.05.09.13.04.2l-.2.51c-.04.07-.14.09-.21.05Z"/><path class="cls-5" d="M119.02,461.92c-1.77-1.68-1.15-5.56-.99-6.41.02-.09.1-.14.18-.12l.49.11c.08.02.13.1.11.18-.14.76-.69,4.22.72,5.59.06.06.07.15.02.21l-.32.42c-.05.07-.15.08-.21.02Z"/><path class="cls-5" d="M78.49,459.18c-1.08-2.7.15-5.36.51-6.03.05-.09.16-.12.24-.07l.53.31-.34-.2.2.12c.08.05.11.15.07.23-.31.6-1.39,3-.47,5.33.03.09,0,.19-.09.22l-.41.18c-.09.04-.2,0-.23-.09Z"/><path class="cls-5" d="M74.23,458.42c-.83-4.09.89-5.65,1.46-6.04.09-.06.2-.03.25.06l.21.4c.04.08.02.17-.05.22-.44.32-1.81,1.63-1.09,5.19.02.09-.04.19-.13.21l-.44.09c-.09.02-.19-.04-.21-.14Z"/><path class="cls-14" d="M132.4,417.65c-1.33,1.76-5.55,4.83-8.07,6.12-3.06,1.6-6.05,2.68-9,4.51-2.4,1.39-4.25,2.36-5.73,4.28-1.13,1.47-1.98,3.4-2.38,5.19-.33,1.44-.42,2.66-.42,2.66.69.09,1.72-.01,2.73-.16.36-.05.77-.12,1.19-.19.02,0,.05,0,.07-.01.44-.08,1.15-.21,1.71-.32-.01,1.38.1,2.55.31,3.5.08.39.19.75.31,1.07.9,2.34,2.55,4.04,3.23,6.12,0,0,0,0,0,0-1.05.24-2.26.51-2.55.58-.02,0-.05.01-.07.02-2.79.7-5.9,1.22-8.43,1.33-5.57.25-9.35.09-12.47-.34-.63-.08-1.49-.3-2.34-.54-1.5-.42-2.94-.93-2.94-.93,0-.05-.01-.1-.02-.15,0-.06-.01-.12-.02-.18h0c-.02-.2-.06-.46-.09-.81,0-.02,0-.04,0-.06-.01-.22-.01-.46.02-.71h0c.06-.46.21-.92.4-1.34.09-.2.19-.37.28-.51.06-.09.11-.16.16-.23.22-.35.44-.7.67-1.06.02-.03.04-.06.06-.1.05-.08.1-.16.16-.24.05-.07.1-.15.15-.22.35-.53.75-1.15,1.18-1.84.02-.03.03-.06.05-.08.11-.18.22-.36.33-.54.14-.23.28-.46.41-.69.06-.1.12-.2.18-.31.16-.27.31-.54.47-.8.05-.09.1-.17.15-.26.08-.14.16-.28.24-.42.05-.09.1-.17.14-.26.05-.08.09-.16.13-.23,0,0,.37,0,1.03,0,.77.02,1.93.07,3.38.2.58.05.58-.06.59-.16.19-1.54.08-5.5-.97-7.43-.48-.86-1.21-1.5-2.01-2.1-.86-.64-1.94-1.28-2.82-1.71-.24-.14-.55-.25-.55-.54v-.02c.08-.22.55-.22.8-.18,11.96,1.88,27.94-2.03,36.93-13.04.48-.55,2-2.38,2-2.38l1.42,5.51Z"/><path class="cls-10" d="M149.3,485.13c-.98,2.35-2.36,3.98-3.35,4.95-1.11-1.1-1.91-2.13-2.41-2.82-.01-.02-.02-.03-.03-.05,0,0,0,0,0,0-.03-.04-.06-.07-.08-.09-.02-.02-.04-.03-.06-.03-.01,0-.03,0-.04.01.87-1.58,1.9-3.55,2.67-5.76,1.02-2.9,1.66-5.63,1.94-7.8,0,.01,0,.02.01.03,0,0,0,0,0,0,.05.12.12.24.2.35.48.66,1.22,1.7,2.27,2.87.18,1.6.26,5.04-1.12,8.33Z"/><path class="cls-11" d="M124.27,491.23l-2.52,2.9h-.03c-.08,0-.33.02-.61.05-.42.04-.88.07-1.36.08l2.26-2.54c-.99-.81-3.05-2.73-3.91-5.87-.96-3.48.12-6.41.69-7.94.79-2.14,1.9-3.68,2.67-4.62l.14.07c-.64,1.09-1.48,2.8-1.92,5.03-.28,1.4-.77,3.88.15,6.77,1.06,3.35,3.4,5.3,4.44,6.06Z"/><path class="cls-11" d="M128.06,456.59c-.5,1.23-2.11,3.55-3.66,4.76-1.5,1.19-4.24,3.32-7.05,2-2.37-1.06-3.11-3.83-3.01-6.06-.02-1.33.02-2.83-.1-4.15-.08-.69-.27-1.39-.53-2.1,0,0,0,0,0-.01-.74-2.01-2.01-4.05-2.71-5.99-.42-1.24-.64-2.86-.3-4.96h0c.2-1.27.61-2.71,1.3-4.34.2-.48.43-.98.62-1.38.07-.15.15-.29.15-.29l.14.05s-.02.55-.05.83c-.25,1.8-.37,3.38-.38,4.76v.03c-.01,1.38.1,2.55.31,3.5.08.39.19.75.31,1.07.9,2.34,2.55,4.04,3.23,6.12,0,0,0,0,0,0,.26.81.37,1.68.24,2.67-.14,1.46-.85,2.73-.75,4.22.08,1.69,1.56,3.53,3.18,4,2.02.57,3.85-.7,5.55-1.99,1.31-1.17,2.26-2.65,2.92-4.21.55-1.45.96-4.39,1.08-5.2.03-.25.07.03.1.16.31,2.39.16,4.49-.59,6.51Z"/><polygon class="cls-14" points="257.65 387.56 256.04 388.72 234.28 353.84 235.89 352.68 257.65 387.56"/><path class="cls-20" d="M183.54,281.96c12.93-11.37,34.82-11.91,50.74,7.5,12.74,15.53,14.44,30.19,14.19,39.87-.41,16.23-6.6,20.89-9.69,25.38,0,0,3.18.77,4.27,3.52l-7.41,5.18c-1.78-1.78-1.98-3.21-1.57-5.88-3.01,1.18-5.29,2.89-13,3.01-17.18.63-32.2-11.81-41.83-25.58-10.1-14.45-14.95-36.06,4.31-53Z"/><path class="cls-14" d="M233.9,357.94l-.06-.03c-.37-.14-.54-.59-.35-.94,1.22-2.21,3.68-2.8,4.92-2.96.39-.05.73.26.74.66v.07c0,.34-.24.63-.58.67-.97.13-2.92.59-3.85,2.21-.17.29-.51.43-.82.31Z"/><path class="cls-14" d="M277.94,373.39c-4.62-6.58-8.27-13.73-10.86-21.26-1.58-4.59-4.28-14.11-4.66-26.38-.15-4.83.08-9.72.68-14.52l1.98.25c-.59,4.7-.81,9.48-.67,14.21.37,12,3.01,21.31,4.55,25.79,2.53,7.35,6.1,14.34,10.61,20.77l-1.64,1.15Z"/><path class="cls-1" d="M289.73,196.32c22.14,5.17,35.64,23.74,32.86,54.25-2.26,24.84-19.15,52.62-46.01,56.93-2.21.36-8.93.8-8.93.8,0,0,2.33,4.04.8,7.44l-11.67-2.52c-.08-3.07,3.76-6.2,3.76-6.2-10.85-5.58-15.88-11.49-22.13-23.43-5.35-10.23-9.52-24.08-5.25-42.41,7.97-34.26,31.34-50.76,56.56-44.87Z"/><path class="cls-14" d="M260.23,307.6h0c-.2-.4-.02-.95.39-1.14,1.36-.62,4.31-1.44,7.18,1.15.29.26.29.77.01,1.11h0c-.25.32-.65.37-.91.14-2.44-2.2-4.88-1.46-5.9-.99-.3.14-.62.02-.77-.27Z"/><path class="cls-20" d="M290.27,206.94c-2.66-5.53-12.67-4.99-13.55-4.93-5.68.37-9.44,3.05-16.74,8.38-7.78,5.68-12.23,9.03-14,15.15-.46,1.58-2.07,7.16.93,10.77,2.31,2.79,6.19,3,8.34,3.08,7.72.31,13.38-3.95,23.97-12.15,5.5-4.26,8.17-7.07,9.92-11.06,1.03-2.34,2.67-6.05,1.13-9.24Z"/><rect class="cls-14" x="280.71" y="403.54" width="47.71" height="2" transform="translate(-158.67 609.06) rotate(-76.85)"/><path class="cls-17" d="M328.04,289.11c17.16,1.46,32.7,16.88,29.71,41.8-2.39,19.94-11.8,31.32-18.96,37.84-12,10.94-19.64,9.7-25.03,10.58,0,0,1.65,2.82.41,5.51l-8.87-1.77c.05-2.52.94-3.65,3.15-5.21-2.93-1.35-5.75-1.82-11.18-7.3-12.34-11.96-13.76-31.41-10.49-47.89,3.44-17.29,15.68-35.75,41.24-33.58Z"/><path class="cls-14" d="M308.07,378.05l-.03-.06c-.15-.37.05-.8.44-.9,2.44-.65,4.57.72,5.54,1.5.31.25.32.71.03.99l-.05.05c-.25.24-.62.26-.89.05-.77-.61-2.45-1.7-4.26-1.25-.33.08-.66-.07-.79-.37Z"/><path class="cls-1" d="M348.14,294.19h0c.22-.3.64-.37.93-.14,8.09,6.31,11.14,12.94,12.26,17.43.94,3.74.74,6.61.57,7.89-.05.39-.43.67-.81.58l-.6-.13.64.14h-.04c-.33-.08-.55-.39-.5-.73.34-2.67.82-13.84-12.33-24.1-.28-.22-.34-.64-.12-.93Z"/><g id="_лицо"><path class="cls-6" d="M288.71,408.88h0c-.16,1.97-.62,4.4-1.84,6.81-.13.26-.27.52-.42.78-.63,1.09-1.95,2.9-2.93,3.94-6.6,7.04-13.43,8.09-17.32,8.65-.85.12-2.3.27-4.16.26-3.44-.02-8.29-.61-13.35-2.93-.95-.43-2.31-1.07-3.84-2.03-2.42-1.51-5.25-3.82-7.47-7.36-.79-1.27-1.97-3.25-2.69-5.84-.1-.35-.18-.7-.27-1.07-.32-1.5-.48-3.18-.34-5.02.08-1.06.29-2.06.58-2.99.11-.36.24-.71.37-1.04,1.21-3.06,3.21-5.18,4.07-6.02-1.15-2.77-2.61-7.23-2.81-12.87-.19-5.29.79-9.59,1.67-12.38,1.79.16,5.33.72,8.95,3.09,4.61,3.02,6.58,7.14,7.26,8.78.21-.05.42-.1.64-.14.52-.11,1.09-.21,1.71-.29.4-.06.83-.1,1.27-.14.85-.07,1.78-.1,2.76-.07.33.01.66.03,1,.06.6.04,1.16.11,1.7.19.12.02.24.04.36.06.4.06.79.14,1.16.22.5.11.98.23,1.42.35,1.42-1.96,3.42-4.34,6.18-6.66,3.7-3.11,7.35-4.96,10.02-6.05,1.48,2.58,3.44,6.72,4.34,12.14,1.04,6.27.19,11.45-.55,14.5.94,1.8,2.27,4.92,2.51,8.96.02.25.08.81.1,1.61h0c.03.69.03,1.54-.05,2.5Z"/><g id="_тень_уха_правого"><path class="cls-9" d="M251.07,384.03c-.66.48-1.35,1.01-2.05,1.57-.38.31-.77.63-1.16.96-.72.61-1.46,1.27-2.2,1.97-.03.03-.05.05-.08.07-2.24,2.12-4.22,3.9-5.71,5.79-.46-.93-.83-1.79-1.33-3.19-.79-2.23-1.51-5.01-1.78-8.26-.43-5.26.5-9.51,1.28-12.08,1.89.89,4.53,2.4,7.15,4.91,3.17,3.03,4.93,6.2,5.87,8.26Z"/><path class="cls-3" d="M249.02,385.6c-.38.31-.77.63-1.16.96-.72.61-1.46,1.27-2.2,1.97-.03.03-.05.05-.08.07-2.24,2.12-4.22,3.9-5.71,5.79-.46-.93-.83-1.79-1.33-3.19,1.24-1.45,3.78-2.84,6.12-3.9,1.05-.47,2.06-.88,2.89-1.19.55-.21,1.02-.37,1.37-.49.03,0,.06-.02.09-.02Z"/><path class="cls-6" d="M247.86,386.56c-.72.61-1.46,1.27-2.2,1.97-.03.03-.05.05-.08.07-.28-.46-.6-.9-.92-1.29-.89-1.13-1.76-1.91-1.76-1.91,1.01-.48,2.9,1.24,2.9,1.24-.12-1.18-1.71-4.48-1.71-4.48.9.29,2.62,2.7,3.46,3.96.12.17.22.32.3.45Z"/></g><path id="_тень_уха_левого" class="cls-9" d="M267.69,386.15c1.47-2.75,3.72-6.25,7.12-9.75,2.32-2.39,4.64-4.22,6.65-5.6,1.4,2.29,3.27,5.98,4.17,10.87,1.14,6.21.15,11.33-.61,14.14-.98,0-2.55-.1-4.31-.79-1.4-.54-2.43-1.26-3.12-1.82,0,0,1.07-3.54,2.93-4.69l-3.3,2.33c-.02-.9.04-2.02.29-3.26.34-1.74.94-3.13,1.46-4.13-.65.46-1.45,1.15-2.2,2.12-1.4,1.82-1.85,3.69-2.02,4.72-.93-.12-2.57-.46-4.28-1.54-1.38-.88-2.27-1.91-2.78-2.6Z"/><g id="_глаза"><ellipse id="_глаз_леваый" class="cls-14" cx="264.95" cy="403.22" rx="2.74" ry="4.2"/><ellipse id="_глаз_правый-2" class="cls-14" cx="246.89" cy="402.09" rx="4.2" ry="2.74" transform="translate(-193.56 571.3) rotate(-79.47)"/></g><path class="cls-7" d="M252.52,396.4c.06.17.09.76-.15.44-1.21-3.33-.62-6.52.42-9.85.58-1.85,1.34-4.02,2-5.48.52-.11,1.09-.21,1.71-.29-2.36,4.57-5.3,9.73-3.98,15.19Z"/><path class="cls-7" d="M260.52,381s-.04.09-.07.14c-1.9,3.19-3.37,6.41-4.55,10.23-.73,2.42-1.17,4.46-1.51,6.74-.1.68-.17,1.35-.25,1.96-.03.32-.4.44-.49.09-.26-5.78,1.4-13.78,4.11-19.09.85-.07,1.78-.1,2.76-.07Z"/><path class="cls-18" d="M265.4,384.64s-.89-1.07-1.48-2.1c-.26-.45-.46-.9-.5-1.23h.17c.4.06.79.14,1.16.22.5.11.98.23,1.42.35-.39.7-.94,1.89-.76,2.76Z"/><path class="cls-7" d="M264.74,381.53s-.03.04-.05.06c-.29.33-.55.65-.78.95-1.02,1.33-1.58,2.46-2.05,3.79-.41,1.23-.56,2.31-1.05,3.5-.71,1.8-1.68,3.19-2.44,4.11-.54.65-1.38,1.56-1.87,2.28-.09.14-.75,2.05-1,2.56-.19.21-.3-.16-.22-.32.31-.68.67-1.83,1.1-2.43,1.27-1.7,2.27-3.33,3.27-5.62.67-1.54,1.22-3.31,1.51-4.65.08-.4.12-.51.36-.98.49-.96,1.32-2.89,1.7-3.54.12.02.24.04.36.06.4.06.79.14,1.16.22Z"/><path class="cls-7" d="M240.49,400.31c-1.44.29-3.11.76-4.5,1.29-.24.06-.93.4-1.34.48.11-.36.24-.71.37-1.04.43-.18,1.08-.32,1.38-.44,1.29-.43,2.77-.71,4.11-.74.57.02.43.35-.04.45Z"/><path class="cls-7" d="M240.42,404.4c-.29.14-1.62.78-3.28,2.86-.99,1.24-1.75,2.5-2.45,3.9-.1-.35-.18-.7-.27-1.07,1.14-1.9,3.47-5.11,5.85-5.81h.03c.14,0,.2.04.12.12Z"/><path class="cls-7" d="M288.71,408.88c-.06-.04-.14-.1-.22-.15-6.27-4.79-16.69-5.56-17.54-5.57-.1-.02-.1-.18.04-.31l.02-.02c.51-.31,1.29-.16,1.88-.22.99-.02,1.9.02,2.93.11,5.88.51,11.31,2.65,12.94,3.66h0c.03.69.03,1.54-.05,2.5Z"/><path class="cls-7" d="M286.86,415.69c-.13.26-.27.52-.42.78-1.14-.49-2.81-1.26-3.94-1.67-6.42-2.11-5.43-6-11.2-8.04-.25-.09-.73-.21-.64-.52.2-.2.63.07.9.14.92.34,1.89.84,2.71,1.43,1.71,1.23,2.33,2.69,4.06,3.91,1.56,1.16,5.35,2.72,7.64,3.64.32.13.62.24.9.34Z"/><path class="cls-9" d="M265.77,426.85c-.68.61-1.46,1.09-3.04,2.04-.24.15-.48.29-.7.42-3.44-.02-8.29-.61-13.35-2.93-.95-.43-2.31-1.07-3.84-2.03-.98-1.92-1.46-3.59-1.73-4.81-.44-2.05-.53-4.1-.38-4.13.1-.02.31.84.46.82.16-.03-.07-1.08.41-2.24.26-.62.6-1,.69-.96.11.05-.24.78.09,1.11.08.08.18.12.25.13.04-.47.25-2.06,1.58-3.34,1.17-1.12,2.51-1.33,2.91-1.38,1.06-.15,1.44.12,3.06.37,2.98.46,3.27-.24,5,.32,1.76.57,2.89,1.75,3.42,2.3,1.67,1.73,2.32,3.72,2.63,3.6.23-.09-.2-1.22.16-1.42.44-.25,1.98,1,2.9,2.69.9,1.65.81,3.02,1.53,3.18.6.13,1.06-.75,1.29-.62.46.26-.42,4.22-3.36,6.88Z"/><path class="cls-7" d="M260.4,416.02c-.06-.23-.31-.34-.53-.26-.2.07-.3.28-.24.48.13.46.21,1.08-.09,1.58-.54.92-2.13.9-3.29.89-1.26-.01-3.37-.04-4.32-1.39-.18-.26-.31-.55-.41-.86,0-.02,0-.03,0-.05h-.02c-.18-.61-.24-1.35-.26-2.28,0-.43.04-.83.1-1.18,1.19-.15,2.25-1.3,2.07-2.25-.18-.92-1.46-1.38-2.34-1.41-.81-.03-2.05.28-2.31,1.09-.29.87.6,2.18,1.78,2.51-.06.37-.11.79-.1,1.25.01.85.05,1.69.27,2.45,0,.44-.16.96-.6,1.11-.17.06-.35.1-.53.12-1.2.12-2.3-.52-2.65-.84-.33-.31-.66-.96-.62-1.66.01-.23.09-.43.19-.59.1-.16.06-.37-.09-.49-.19-.17-.49-.11-.62.11-.17.3-.27.61-.29.94-.05.84.29,1.74.87,2.29.49.46,1.62,1.08,2.9,1.08.13,0,.26,0,.39-.02.24-.02.48-.08.7-.15.37-.13.66-.38.86-.73.01.02.02.03.03.05,1.19,1.7,3.66,1.72,4.98,1.74.15,0,.3,0,.46,0,1.29,0,2.84-.11,3.54-1.29.44-.74.34-1.6.17-2.21Z"/></g><path class="cls-14" d="M313.83,470.84c-.02.92-.05,2.21-.24,3.76h0c-.07.54-.16,1.11-.27,1.7h0c-.29,1.53-.75,3.22-1.48,5.01-1.33,3.25-3.19,5.89-5.15,7.99-4.14,4.44-8.74,6.52-9.76,6.96-1.15.5-2.98,1.26-5.34,1.81-.04.01-.09.02-.13.03,0,0-.01,0-.02,0-.9.21-1.87.37-2.91.49-.05,0-.1,0-.15.02-1.15.12-2.39.17-3.69.11-1.29-.06-2.65-.22-4.07-.53-9.29-2-11.18-5.21-13.81-8.36-.88-1.43-1.61-3.22-2.21-5.21-2.01-6.61-2.65-15.44-2.77-20.67,0,0-.3-3.18-.99-7.48-.27-1.67-.6-3.52-.99-5.42,0-.05-.02-.11-.03-.16-.5-2.4-1.2-5.27-2.23-8.53-1.01-3.21-2.33-6.79-4.08-10.68-.6-1.33-1.25-2.7-1.95-4.1,3.7,1.26,7.14,1.66,9.82,1.72.11,0,.22,0,.33,0,.06,0,.12,0,.17,0h.15c.26,0,.51,0,.75,0,1.43-.03,2.55-.15,3.25-.25,3.89-.56,10.72-1.61,17.32-8.65.98-1.04,2.29-2.85,2.93-3.94,0-.02.02-.04.03-.05.14-.24.27-.48.39-.72,0-.02.02-.03.02-.05,1.21-2.39,1.67-4.8,1.82-6.75h0s0-.07,0-.11c.07-.92.07-1.74.04-2.4v-.87s.07.04.11.06c2.11,1.17,5.26,4.93,7.64,8.82,1.03,1.69,1.88,3.67,3.19,7.29,1.25,3.47,2.92,8.44,5.55,16.11.11.32.14.39.45,1.39.35,1.12,1.06,3.42,2.67,8.56.02.08.05.15.07.23.47,1.5,1.02,3.25,1.65,5.26.02.05.04.11.05.17.28.89.57,1.83.89,2.83.21.68.42,1.33.61,1.94.02.07.05.15.07.22.4,1.29.74,2.45,1.04,3.53.02.06.03.11.05.17.84,3.1,1.26,5.6,1.2,8.73Z"/><path class="cls-4" d="M309.98,453.42c-.59.97-1.31,2.1-2.17,3.32-2.05,2.9-3.83,5.42-6.92,7.63-1.19.85-3.08,2.03-5.73,2.95,2.17-1.87,4.72-4.44,7.15-7.81,3.03-4.21,4.85-8.29,5.97-11.53.47,1.5,1.02,3.25,1.65,5.26.02.05.04.11.05.17Z"/><path class="cls-4" d="M312.64,462.11c-.35.57-.76,1.2-1.24,1.86-1.43,2.02-2.66,3.76-4.8,5.3-.83.59-2.14,1.41-3.98,2.05,1.51-1.3,3.28-3.08,4.96-5.42,1.95-2.71,3.18-5.34,3.96-7.49.4,1.29.74,2.45,1.04,3.53.02.06.03.11.05.17Z"/><path id="_хвост" class="cls-14" d="M313.94,475.16c-2.44,4.5-4.88,9-7.32,13.51.25,2.44.89,6.16,2.75,10.26,2.28,5.03,4.8,7.12,7.88,11.72,2,2.99,5.73,8.17,6.69,11.81,1.01,4.18,1.51,11.52-2.92,16.95-.84,1.03-4.56,3.75-10.28,3.76-.75,0-5.31-.07-8.62-3.72-2.02-2.24-1.83-4.09-2.75-5.81-.98-2.06-3.11-2.96-4.86-2.63-2.39.44-4.31,3.45-3.3,6.63.49,1.73,1.62,4.68,4.31,7.08,5.09,4.55,11.51,4.54,15,4.41,2.27-.08,9.12-.62,14.44-6.18,6.64-6.94,6.14-16.18,5.76-19.22-.49-3.91-2.57-7.47-7.3-17.59-4.79-10.23-5.59-11.21-5.84-14.47-.23-3.1.21-6.15-1.19-10.78-.75-2.49-1.73-4.44-2.46-5.73Z"/><path id="_нога_правая" class="cls-5" d="M284.69,498.73c-7.01,10.87-14.51,21.49-15.96,22.61-.68.53-1.8,1.39-2.93,1.21-2.32-.36-3.09-3.16-3.24-5.09-.06-.83-.44-2.89,1.16-8.84.61-2.27,1.68-4.48,2.75-5.93-.86-.66-3.77-3.06-4.64-7.27-1.1-5.32,1.9-9.7,2.88-10.92.61,2.05,1.36,3.89,2.25,5.35,2.63,3.15,4.52,6.36,13.81,8.36,1.36.29,2.67.45,3.92.52Z"/><path class="cls-2" d="M296.08,481.01c-1.17,1.02-2.76,2.67-4.04,5.06-.77,1.44-1.24,2.78-1.53,3.89-.27.84-.67,2.51-.3,4.59.28,1.6.91,2.81,1.4,3.57-.95.21-1.98.39-3.09.51-.05-3.71.63-6.6,1.23-8.47.33-1.03.79-2.47,1.77-4.18,1.43-2.48,3.23-4.07,4.44-5.07l.11.11Z"/><path id="_нога_левая" class="cls-6" d="M312.73,473.32s-12.86,5.33-16.87,7.63c-1.56.89-4.57,3.83-5.38,9.26-1.19,8.04,3.72,11.68,4.28,12.23-.71,1.62-1.49,3.55-2.26,5.75-1.48,4.22-1.61,5.86-1.71,6.66-.28,2.17-.56,4.56,1.16,5.99,1.5,1.25,4.23,1.6,6.07-.85,4.67-6.2,11.21-15.31,15.8-22.53,2.88-4.54,3.29-6.56,3.43-9.62.03-.66.13-3.46-.86-6.96-.93-3.32-2.43-5.86-3.67-7.57Z"/><path class="cls-6" d="M271.42,432.99c-.58.04-3.29.29-5.13,2.42-1.38,1.59-1.53,3.38-1.71,5.81-.22,3.05.21,4.86.43,6.9.51,4.83-.82,5.01-1.22,12.35-.07,1.28-.26,5.49.43,10.84.57,4.42.88,6.68,2.44,9.08,2.1,3.22,5.02,4.77,6.23,5.39,2.04,1.05,3.89,2,6.17,1.7,3.26-.43,5.25-3.1,6.97-5.39.52-.7,3.18-4.35,3.97-9.99.64-4.56-.28-8.03-.49-8.78-1.17-4.23-3.42-7.07-4.71-8.48-2.65-2.73-3.98-5.27-4.71-7.1-1.1-2.78-2.08-7.11-2.32-8.16-.71-3.15-.86-4.65-2.26-5.69-1.45-1.09-3.27-.96-4.09-.91Z"/><path class="cls-1" d="M305.54,439.2c-.64,2.38-2.13,6.5-5.82,10.02-2.75,2.62-5.52,3.76-9.41,5.21-.32.12-.65.24-.98.37-.58.21-1.14.4-1.69.58-.63.2-1.26.38-1.91.55h0c-2.26.58-4.73,1.01-8.14,1.55-.5.08-1.02.16-1.57.25-.2.03-.41.06-.61.1,0,0-7.23,1.14-11.12,0-.09-.03-.18-.05-.27-.08-1.53-.47-2.91-1.13-2.91-1.13-.09-.04-.17-.08-.26-.12-.27-1.67-.6-3.52-.99-5.42,0-.05-.02-.11-.03-.16-.46,1.03-.91,2-1.42,3.04l-4.03-11.75-1.1-2.06c1.11.7,2.56,1.5,4.32,2.24.34.15.7.29,1.06.43.75.28,2.15.78,4.05,1.21.58.13,1.21.26,1.87.37.57.09,1.16.18,1.78.24,1.72.19,6.11.51,11.49-.85.03,0,.06-.02.09-.02.26-.07.53-.14.82-.21,2.75-.73,7.06-2.13,11.31-5.7.25-.21.63-.54,1.1-.98,1.67-1.57,4.46-4.64,6.48-9.19,1.01-2.27,1.57-4.34,1.9-5.97,1.25,3.47,2.92,8.44,5.55,16.11.11.32.14.39.45,1.39Z"/><path class="cls-12" d="M277.83,447.75c-.73,3.24-1.24,7.41-1.59,8.97-1.15,5.13-3.12,7.45-3.12,10.11s1.61,5.27,4.16,6.78c3.73,2.22,7.58.63,8.07.42.27-.12,3.94-1.77,4.95-5.39.7-2.53-.64-3.35-.74-7.75-.03-1.38.11-.86.74-6.42.66-5.88.68-8.07.64-9.57-.04-1.68-.17-3.06-.27-4l-12.83,6.83Z"/><path class="cls-6" d="M278.51,430.45c-1.82,1.87-1.03,4.39-.67,10.78.18,3.12.12,5.9,0,11.44-.04,2.02-.11,3.84-.43,6.18-.17,1.22-.4,2.44-.86,4.84-.4,2.09-.74,3.8-.98,4.97-.03.27-.26,2.43,1.1,3.45,1.06.8,2.46.43,4.09,0,.92-.24,2.6-.71,4.22-2.18.53-.48,2.68-2.45,2.81-5.17.04-.89-.46-5.08-.49-6.15-.08-2.96,1.24-6.94,1.96-8.9.93-3.59,1.41-6.6,1.68-8.78.4-3.26.26-4.22,0-5.09-1.04-3.42-4.09-5.15-5.04-5.69-1.2-.68-2.63-1.49-4.44-1.21-.11.02-1.77.3-2.95,1.51Z"/><path class="cls-15" d="M262.74,443.89s-.03.08-.05.12c-1.19,2.93-2.04,5-2.88,6.9-.46,1.03-.91,2-1.42,3.04h0c-.14.28-.27.56-.42.85-2.03,4.02-2.71,4.94-2.98,7.12-.2,1.61.02,2.36-.5,3.96-.87,2.68-2.69,4.28-3.3,4.78-.61.5-2.33,1.79-4.79,2.23-.18.03-.37.06-.57.08-.16.02-.34.04-.51.04-1.07.07-2.37.15-3.37-.47-.16-.09-.3-.21-.44-.34,0-.01-.02-.02-.03-.03-1.05-1.03-.97-2.63-.92-3.51.19-2.95,1.78-4.25,3.36-7.21.46-.87,1.15-3.21,2.5-7.87,1.65-5.66,2.47-8.49,2.69-9.45,1.61-7.06,1.25-10.12,3.91-12.11.1-.08.27-.2.48-.33.54-.34,1.42-.76,2.52-.82,2.22-.11,3.85,1.35,4.77,2.18.5.45,2.98,2.67,3.18,6.05.09,1.44-.27,2.46-1.22,4.78Z"/><g id="_ногти"><path class="cls-5" d="M245.86,473.03c-1.24-2.7.41-5.68.48-5.81l.56.31s-1.49,2.71-.52,5.08c.08.2,0,.42-.2.52h0c-.12.06-.27.01-.33-.11Z"/><path class="cls-5" d="M241.54,472.34c-.71-2.84,1.39-5.46,1.48-5.58l.5.4s-1.98,2.47-1.36,5c.04.16-.05.32-.2.37h-.03c-.16.06-.35-.03-.39-.2Z"/><path class="cls-5" d="M277.64,472.51c-1.43-2.61,0-5.69.07-5.82l.59.27s-1.3,2.8-.16,5.1c.09.19.02.42-.16.53h0c-.12.07-.27.03-.33-.09Z"/><path class="cls-5" d="M281.63,472.49c-1.86-2.33-.98-5.61-.94-5.75l.62.17s-.79,2.98.73,5.05c.13.17.1.41-.06.55h0c-.1.09-.26.08-.34-.03Z"/></g></g><path class="cls-19" d="M245.6,106.89c-2.39,7.83-7.27,14.61-13.7,20.78-5.94,5.7-13.2,10.89-21.05,15.93-5.97,3.83-12.27,7.57-18.59,11.39-.22.13-.43.25-.64.39-4.33,2.61-8.66,5.26-12.88,8-4.08,2.64-8.06,5.37-11.86,8.22-13.91,10.47-25.25,22.64-29.4,38.8-.24-.05-.48-.1-.72-.15-9.32-1.9-18.4-3.35-27.16-4.61-.81-.12-1.62-.23-2.42-.34-51.28-7.25-91.22-8.85-104.05-60.23-1.41-5.63-2.32-11.28-2.78-16.9-.47-5.71-.47-11.4,0-17.02,2.21-27.46,15.08-53.46,35.56-73.4,6.84-6.68,14.52-12.67,22.94-17.8,11.4-6.98,24.15-12.4,37.97-15.85,5.99-1.49,11.97-2.57,17.92-3.24,10.26-1.16,20.4-1.13,30.23,0,1.92.22,3.83.48,5.72.79,21.3,3.39,40.97,11.96,57.03,24.63,10.36,8.16,19.21,18.03,26.03,29.33,2.53,4.16,4.77,8.52,6.7,13.06,2.17,5.06,3.95,10.34,5.32,15.83,2.1,8.4,1.85,15.77-.17,22.39Z"/><path class="cls-19" d="M387.27,152.85c-20.68,59.64-85.78,91.23-145.42,70.55-40.73-76.37-91.23-85.78-70.55-145.42C191.97,18.34,257.08-13.25,316.72,7.43c59.64,20.68,91.23,85.78,70.55,145.42Z"/></g></svg>