<?xml version="1.0" encoding="UTF-8"?>
<svg id="_Слой_2" data-name="Слой 2" xmlns="http://www.w3.org/2000/svg" viewBox="0 0 544.83 506.57">
  <g id="_Слой_1-2" data-name="Слой 1">
    <g id="cat">
      <path id="_узор" data-name="узор" d="M447.54,169.75c4.13-11.2,2.63-21.76-3.71-30.48-6.1-8.39-20.34-13.59-33.5-9.73-8.47,2.49-77.1,27.84-121.72,21.49-37.62-5.35-94.26-56.09-99.57-60.24-10.22-8-26.17-9.29-34.67-3.38-8.84,6.15-14.05,19.21-10.83,30.67,4.17,14.89,29.83,56.05,20.46,123.29-9.28,66.64-50.74,97.76-58.72,110.83-6.05,9.91-9.53,26.91,2.31,40,11.36,12.56,27.65,10.22,35.82,7.95,11.86-3.29,84.33-26.28,112.74-22.41,34.12,4.37,89.24,51.46,99.37,58.49,6.98,4.84,21.47,10.09,36.43,4.32,16.39-6.32,17.73-25.66,15.25-37.02-3.27-14.98-25.77-76.91-19.26-124.07,7.25-52.48,54.43-95.65,59.6-109.69Z" style="fill: #fbbc05; stroke-width: 0px;"/>
      <polygon id="_палка_заливка" data-name="палка заливка" points="509.93 338.98 8.28 337.71 6.48 303.54 509.93 303.54 509.93 338.98" style="fill: #fff; stroke-width: 0px;"/>
      <path id="_тень_палка" data-name="тень палка" d="M6.48,338.98c4.85-7.21,11.03-10.17,17.39-11.14,13.26-2.93,122.6-7.9,212.81-7.9,110.31,0,198.65,7.12,208.06,11.89-.17,1.24-.35,3.11-.52,4.35-145.86,1.48-291.73,2.85-437.73,2.8Z" style="fill: #e7eaee; stroke-width: 0px;"/>
      <g>
        <path id="_белая_заливка_лица" data-name="белая заливка лица" d="M346.44,104.79c-10.22,18.65-20.99,36.06-41.62,44.23-2.48.98-5.11,1.66-7.73,2.22-3.65.77-7.32.55-10.05-2.3-6.95-7.24-15.87-9.69-25.35-11.01-3.99-.56-8.1-.89-11.87-2.16-4.81-1.62-9.39-3.97-13.94-6.28-1.99-1-3.48-2.25-4.64.88-.16.43-2.48.74-2.91.29-2.15-2.34-4.53-4.72-5.84-7.54-1.66-3.61-2.35-7.68-3.51-11.53-.36-1.19-.83-2.34-1.36-3.78-.1-.27-.43-.38-.66-.21-1.31.94-2.43,1.75-4,2.88-.28.2-.66,0-.68-.34-.17-3.63-.49-6.68-.32-9.71.57-10.51,1.61-21.01,1.98-31.53.34-9.75-.3-19.48-3.03-28.95-1.71-5.94-4.44-9.56-8.76-14.06-.28-.29-.53-2.02-.13-1.99,2.37.2,5.75,1.52,8.04,2.04,7.23,1.65,13.42,4.99,17.45,11.07,1.18,1.78,1.7,3.12,3.47,2.52,2.33-.77,4.75-1.39,6.95-2.46,9-4.35,18.48-6.05,28.39-5.36,2.48.17,4.28-.65,5.1-2.83,1.34-3.51,2.88-7.08,3.35-10.74.55-4.31.17-8.74.13-14.09,0-.32.36-.54.65-.39,2.52,1.35,4.76,2.24,6.55,3.7,7.38,6.04,12.61,13.91,15.57,22.75,3.2,9.55,8.47,16.78,17.13,21.79,2.35,1.35,4.29,3.44,6.41,5.19l-1.18.22c-.05,0-.1.04-.15.06-1.5,1.01-3.89,1.83-4.17,3.1-.32,1.44.97,3.7,2.22,4.95,4.78,4.8,7.63,8.79,9.02,13.53.09.3,2.04,5.7,2.63,7.13,3.36,8,8.38,14.42,16.65,18.1.23.1.33.38.21.6Z" style="fill: #fff; stroke-width: 0px;"/>
        <g id="_лицо" data-name="лицо">
          <path d="M237.93,82.31c-.07,2.57-.39,5.09-1.68,7.37-.38.66-.89,1.29-1.46,1.8-1.45,1.3-3.28,1.23-4.67-.15-1.56-1.55-2.45-3.48-2.96-5.58-.93-3.83-.46-7.5,1.5-10.94.32-.56.7-1.1,1.11-1.6,1.39-1.7,3.49-1.82,5.13-.32,1.08.99,1.65,2.27,2.1,3.61.63,1.88.95,3.82.93,5.81Z" style="stroke-width: 0px;"/>
          <path d="M279.95,75.97c-.02,1.73-.12,3.65-.89,5.45-.71,1.64-1.84,2.87-3.66,3.24-1.65.33-2.97-.38-4.06-1.55-1.12-1.21-1.6-2.72-1.88-4.31-.48-2.74-.71-5.48-.17-8.24.27-1.39.74-2.72,1.57-3.89,1.18-1.66,2.83-2.03,4.6-1.05,1.73.96,2.78,2.48,3.5,4.27.76,1.89.99,3.87.98,6.08Z" style="stroke-width: 0px;"/>
          <path d="M267.73,56.47c-3.48-6.23-8.11-11.01-15.37-12.51-.03.04-.07.09-.1.13.67.59,1.37,1.16,2.02,1.78,1.39,1.33,2.48,2.88,3.19,4.67.29.72.74,1.27,1.35,1.71.59.43,1.15.87,1.28,1.67.07.45.02.84-.34,1.13-.35.28-.71.16-1.07-.02-1.73-.9-3.43-1.87-5.2-2.68-2.9-1.33-5.94-2.17-9.17-2.13-1.51.02-2.98.27-4.5.83.94.75,1.36,1.66,1.07,2.87,2.39.33,4.3,1.74,6.46,2.64-.1.3-.19.55-.29.86-4.73-2.23-9.52-2.47-14.39-.7,0,.08,0,.15,0,.23,1.27.02,2.55.06,3.82.04.45,0,.83.04,1.24.25,2.18,1.13,4.39,2.22,6.57,3.34.3.15.58.38.81.62.33.34.39.77.23,1.21-.16.42-.37.47-.72.18-4.34-3.5-9.27-4.82-14.77-3.99-.38.06-.68.03-.9-.31-.23-.37-.32-.79-.02-1.11.34-.35.75-.69,1.2-.88,2.85-1.18,5.82-1.94,8.89-2.29.16-.02.31-.06.54-.23-.88-.65-1.73-1.34-2.64-1.93-.75-.49-1.57-.9-2.38-1.3-.33-.16-.4-.37-.34-.69.15-.78,1.13-1.34,1.89-1.11.28.08.6.11.88.06,6.84-1.07,13.28.06,19.29,3.54.11.06.22.12.39.21.1-.62-.1-1.14-.43-1.54-.83-1-1.7-1.97-2.59-2.91-1.95-2.06-3.94-4.09-5.9-6.14-.05-.05-.08-.11-.21-.28.53.07.94.1,1.35.17,4.43.74,8.69,2.03,12.68,4.11,3.93,2.06,5.98,5.37,6.23,9.8.01.18,0,.36,0,.54,0,.05-.04.09-.06.14Z" style="opacity: .19; stroke-width: 0px;"/>
          <path d="M269.16,52.7c-3.48-6.23-8.11-11.01-15.37-12.51-.03.04-.07.09-.1.13.67.59,1.37,1.16,2.02,1.78,1.39,1.33,2.48,2.88,3.19,4.67.29.72.74,1.27,1.35,1.71.59.43,1.15.87,1.28,1.67.07.45.02.84-.34,1.13-.35.28-.71.16-1.07-.02-1.73-.9-3.43-1.87-5.2-2.68-2.9-1.33-5.94-2.17-9.17-2.13-1.51.02-2.98.27-4.5.83.94.75,1.36,1.66,1.07,2.87,2.39.33,4.3,1.74,6.46,2.64-.1.3-.19.55-.29.86-4.73-2.23-9.52-2.47-14.39-.7,0,.08,0,.15,0,.23,1.27.02,2.55.06,3.82.04.45,0,.83.04,1.24.25,2.18,1.13,4.39,2.22,6.57,3.34.3.15.58.38.81.62.33.34.39.77.23,1.21-.16.42-.37.47-.72.18-4.34-3.5-9.27-4.82-14.77-3.99-.38.06-.68.03-.9-.31-.23-.37-.32-.79-.02-1.11.34-.35.75-.69,1.2-.88,2.85-1.18,5.82-1.94,8.89-2.29.16-.02.31-.06.54-.23-.88-.65-1.73-1.34-2.64-1.93-.75-.49-1.57-.9-2.38-1.3-.33-.16-.4-.37-.34-.69.15-.78,1.13-1.34,1.89-1.11.28.08.6.11.88.06,6.84-1.07,13.28.06,19.29,3.54.11.06.22.12.39.21.1-.62-.1-1.14-.43-1.54-.83-1-1.7-1.97-2.59-2.91-1.95-2.06-3.94-4.09-5.9-6.14-.05-.05-.08-.11-.21-.28.53.07.94.1,1.35.17,4.43.74,8.69,2.03,12.68,4.11,3.93,2.06,5.98,5.37,6.23,9.8.01.18,0,.36,0,.54,0,.05-.04.09-.06.14Z" style="stroke-width: 0px;"/>
          <path d="M309.64,89.07c-.99.47-1.93.97-2.91,1.37-4.85,2.01-9.85,3.54-15.05,4.39-2.76.45-5.5.45-8.26.01-4.6-.74-9.05-.34-13.21,1.95-.54.3-1.07.6-1.61.9-.76.43-1.5.27-1.89-.39-.39-.65-.17-1.4.56-1.85,4.47-2.74,9.28-4.02,14.54-3.4,2.69.31,5.39.61,8.1.77,5.25.32,10.18-.97,14.92-3.11,1-.45,1.99-.94,3-1.39.75-.33,1.33-.11,1.8.75Z" style="stroke-width: 0px;"/>
          <path d="M284.45,104.83c-1.55.04-3.03-.33-4.49-.74-3.62-1.02-7.25-1-10.89-.14-.32.08-.68.11-1.01.05-.59-.11-.96-.63-.97-1.21,0-.59.34-1.12.92-1.26,2.26-.55,4.54-.88,6.87-.84,2.33.04,4.61.5,6.82,1.16,4.18,1.25,8.28.98,12.37-.39.26-.09.51-.22.77-.24.35-.03.74-.06,1.04.08.26.11.43.45.63.69-.21.17-.4.4-.65.5-2.63,1.07-5.39,1.63-8.19,2-1.07.14-2.16.21-3.24.31Z" style="stroke-width: 0px;"/>
          <path d="M225.3,113.73c.29-.22.56-.48.88-.65,2.91-1.55,5.3-3.75,7.63-6.03,2.23-2.19,4.63-4.12,7.62-5.14,1.18-.4,2.46-.55,3.71-.72.73-.1,1.28.43,1.35,1.11.07.75-.37,1.4-1.14,1.44-3.25.17-5.81,1.79-8.22,3.78-2.02,1.66-3.97,3.43-6.25,4.76-1.36.8-2.76,1.51-4.37,1.65-.37.03-.74,0-1.11,0-.03-.07-.06-.13-.08-.2Z" style="stroke-width: 0px;"/>
          <path d="M229.34,123.02c.29-.27.44-.48.65-.6,2.01-1.15,3.32-2.95,4.56-4.84,1.84-2.81,3.87-5.49,6.25-7.88,1.32-1.32,2.87-2.3,4.6-3,.67-.27,1.35,0,1.65.63.31.65.1,1.43-.57,1.71-2.78,1.14-4.73,3.25-6.53,5.55-1.28,1.63-2.53,3.3-3.94,4.81-1.02,1.1-2.23,2.07-3.48,2.9-.7.47-1.65.55-2.5.78-.15.04-.34-.03-.68-.07Z" style="stroke-width: 0px;"/>
          <path d="M260.91,113.62c-.02.54-.33.92-.87,1.13-.55.22-1.1.44-1.66.64-.83.3-1.78-.54-1.65-1.45.2-1.42,2.01-2.4,3.31-1.78.51.24.88.83.87,1.46Z" style="stroke-width: 0px;"/>
        </g>
        <path id="_фигура" data-name="фигура" d="M544.4,318.97c-2.19-21.91-12.3-40.04-28.3-54.91-9.85-9.15-20.07-17.89-29.95-27.01-10.54-9.73-17.76-21.28-20.53-35.74-1.56-8.14-4.24-16.31-7.86-23.77-7.65-15.79-20.46-27.22-35.08-36.28-16.45-10.2-33.48-19.44-50.33-28.98-10.55-5.97-20.9-12.22-29.85-20.49-8.34-7.71-14.96-16.57-18.24-27.57,4.97-3.96,4.77-8.23-.4-11.67-1.02-.68-2.13-1.24-3.23-1.77-4.57-2.17-8.39-5.3-11.01-9.59-2.9-4.77-5.27-9.86-8.09-14.68-3.48-5.98-6.71-12.19-10.91-17.64C285.82,2.6,278.89-.2,270.02.01c.38,4.05.61,7.9,1.14,11.7.69,5,1.81,9.94-.78,14.79-.96,1.8-2.04,2.59-4.19,2.43-7.78-.57-15.47.19-22.86,2.77-4.07,1.42-8.01,3.22-12.01,4.85-8.56-12.03-24.61-17.87-35.67-12.73.84.97,1.6,1.89,2.4,2.77,7.51,8.22,11.75,17.66,12.34,29,.82,15.75-.3,31.35-2.08,46.95-.4,3.49-1.05,7.3,1.89,9.78,1.76,1.48,4.59,1.68,7.13,2.52-.65,9.55,5.1,17.83,14.95,19.23,6.07.87,10.41,4.03,15.07,7.63-1.24.91-2.3,1.71-3.39,2.48-35.12,24.55-73.1,43.35-113.72,56.94-5.55,1.86-11.08,4.44-15.86,7.78-8.71,6.1-9.94,16.16-3.31,25.38-3.45,1.33-6.63,2.83-9.97,3.77-4.19,1.18-8.58,1.67-12.77,2.85-6.79,1.91-10.99,6.55-11.89,13.53-.48,3.72-.37,7.67.33,11.35,2.24,11.95,7.39,22.72,14.26,32.69.59.86,1.1,1.77,2.15,3.48H8.86c7.52-8.61,14.98-17.14,23.08-26.41-1.4.43-1.81.53-2.2.68-22.04,8.76-35.02,37.12-27.69,60.15,1.07,3.35,2.42,4.69,6.22,4.68,109.2-.3,218.4-.43,327.6-.63,26.23-.05,52.47-.26,78.7-.39,5.32-.03,10.64,0,16.9,0-1.79,1.28-2.83,2.04-3.89,2.77-14.86,10.33-28.96,21.56-40.69,35.46-15.81,18.75-25.85,39.79-24.63,64.97.83,17.25,8.06,41.24,25.1,49.87,12.1,7.26,23.64,10.87,36.68,12.82,7.29,1.09,14.54,1.08,21.41-2.03,5.41-2.46,9.33-8.21,10.58-14.49,1.46-7.34-1.06-11.67-2.41-16.79-1.33-5.04-2.62-10.37-2.06-15.46,1.08-9.79,6.59-17.54,13.97-23.78,6.49-5.5,13.38-10.54,20.02-15.86,15.34-12.27,30.14-25.09,42.07-40.9,12.91-17.11,18.92-36.3,16.79-57.63ZM348.45,108.15c1.06-.81,2.24-1.46,3.37-2.18.67,1.18,1.34,2.36,1.7,3-1.59,11.13-6.36,19.83-13.44,27.35-10.19,10.83-23.24,16.85-36.89,21.85-2.51.92-4.85,2.29-7.39,3.1-1.16.37-2.59-.13-3.9-.23.41-1.48.55-3.14,1.35-4.37.47-.73,1.97-.99,3.04-1.12,15.17-1.88,26.78-9.92,35.7-21.74,5.77-7.65,10.46-16.11,15.63-24.21.3-.47.42-1.13.83-1.44ZM235.79,129.65c-1.99-1-3.48-2.26-4.64.88-.16.43-2.48.74-2.9.29-2.15-2.35-4.53-4.72-5.84-7.55-1.67-3.61-2.36-7.67-3.51-11.53-.36-1.2-1.04-2.47-1.62-3.95-.1-.25-.41-.35-.63-.19-1.32.95-2.45,1.76-4.02,2.89-.28.2-.67,0-.69-.34-.14-3.61-.24-6.54-.08-9.57.57-10.51,1.61-21.01,1.98-31.52.34-9.75-.3-19.48-3.03-28.95-1.81-6.29-4.18-10.01-9.05-14.91,2.74.28,5.53.29,8.2.9,7.23,1.65,12.71,5.98,16.75,12.07,1.18,1.78,2.4,2.12,4.17,1.53,2.33-.78,4.75-1.39,6.95-2.46,9-4.36,18.48-6.06,28.39-5.37,2.48.17,4.27-.65,5.1-2.83,1.34-3.51,2.89-7.08,3.35-10.74.58-4.51.14-9.15.14-14.82,2.79,1.54,5.26,2.47,7.19,4.05,7.38,6.04,12.61,13.92,15.57,22.74,3.21,9.55,8.46,16.78,17.13,21.79,2.36,1.36,4.29,3.45,6.42,5.2-.42.08-.85.15-1.27.23-1.5,1.03-3.96,1.85-4.25,3.15-.32,1.45.97,3.7,2.22,4.95,5,5.01,7.88,9.15,9.2,14.17-2.52-.33-5.02-.66-7.69-1.02,2.01,7.33,3.93,14.3,6,21.86-5.07-2.35-9.14-4.27-13.26-6.09-.22-.1-.78.59-1.19.92,6.14,6.69,6.44,10.15,1.59,18.23-3.44,5.74-6.97,11.42-10.59,17.35,3.67,1.91,5.95-.02,7.85-2.2,5.74-6.61,8.92-14.4,10.01-23.06.09-.74.22-1.48.4-2.64,1.45.84,2.6,1.5,3.75,2.17,3.4,1.98,6.12.39,6.1-3.54,0-1.82-.48-3.67-.98-5.44-1.24-4.36-2.63-8.69-3.97-13.03.28-.18.56-.37.84-.55,1.23,1.17,2.99,2.11,3.59,3.53,3.41,8.14,8.54,14.64,17.07,18.29-10.3,18.8-21.06,36.41-41.85,44.64-2.48.98-5.11,1.66-7.73,2.21-3.65.77-7.32.55-10.05-2.29-6.94-7.24-15.86-9.68-25.34-11.01-3.99-.56-8.1-.89-11.87-2.16-4.81-1.63-9.39-3.98-13.94-6.27ZM272.34,299.71c-43.16.48-86.04.95-129.28,1.42,1.9-5.64,3.87-10.83,5.39-16.15,1.76-6.12,3.13-12.36,4.65-18.55,2.46-9.99-1-17.82-8.89-23.94-2.81-2.18-5.81-4.14-9.11-6.48,5.3-1.23,8.18-5.03,11.01-8.85,3.79-5.11,8.53-8.54,15.14-8.69,12.81-.28,24.44-5.19,36.25-9.34,7.92-2.78,15.64-6.14,23.63-8.68,16.31-5.19,32.75-5.6,49.25-.56,9.93,3.03,16.33,8.46,16.82,19.77.55,12.51,2.22,24.98,2.9,37.49.27,5.09-.67,10.26-1.28,15.38-.4,3.35-2,6.04-5.02,7.94-2.35,1.48-4.56,3.28-6.56,5.22-3.82,3.7-6.79,7.84-4.91,14.02ZM275.49,292.47c-.18,1.34,1.65,5.11.82,6.98-.22.49-1.35.35-1.62-.12-.86-1.54,0-8.48.48-8.53.41-.04.44,1.19.32,1.67ZM114,212.95c5.02-4.42,11.13-6.7,17.48-8.17,19.22-4.45,37.22-12.01,54.74-20.88,16.57-8.38,33.51-16.13,48.7-26.99,5.27-3.77,10.07-8.2,15.27-12.07,1.55-1.16,3.93-2.37,5.6-2.01,7.28,1.59,14.57,3.37,21.58,5.85,4.84,1.72,5.49,4.85,3.64,9.76-1.86,4.9-3.77,9.81-5.18,14.85-.92,3.29.23,6.44,2.89,8.8,1.99,1.77,4.2,1.99,6.5.66,2.26-1.31,2.74-3.32,2.23-5.78-1-4.8-1.9-9.62-2.84-14.43.3-.01.61-.03.91-.04,5.43,13.04,3.12,26.28.98,40.03-3.26-1.51-6.2-3.04-9.26-4.24-6.45-2.53-12.87-5.2-19.5-7.14-2.66-.78-6-.35-8.75.46-7.55,2.23-14.99,4.36-23.01,2.55-1.36-.31-3.06.47-4.51,1-13.94,5.19-27.75,10.73-41.82,15.54-6.06,2.07-12.61,2.8-18.98,3.88-5.8.98-11.1,2.72-15.26,8.28-1.89-2.47-3.52-4.76-5.32-6.9-1.97-2.34-4.46-3.27-7.38-2.01-5.11-6.54-10.43-6.54-15.78-.33-1.23,1.43-3.11,2.29-4.69,3.41-.33-.38-.65-.77-.98-1.15.91-.98,1.74-2.05,2.74-2.93ZM114.67,219.3c2.59-.8,4.54-1.96,5.76-4.59,1.4-3.02,4.37-3.66,6.99-1.67,3.75,2.84,7.42,5.8,10.99,8.87,3.22,2.76,2.92,6.6-1,8.24-3.74,1.57-7.89,2.17-11.04,2.99-3.77-.65-6.61-.85-9.25-1.69-1.83-.58-3.7-1.76-4.99-3.18-3.01-3.3-1.73-7.65,2.54-8.97ZM101.97,243.38c5.07-5.5,11.57-7.39,18.65-5.54,7.16,1.87,13.99,4.88,19.54,9.99,4.91,4.52,7.8,10.01,6.73,17.54-1.13-.54-1.99-.69-2.46-1.21-3.52-3.88-8.12-4.49-12.92-4.29-5.72.24-10.64-1.57-15.42-4.68-3.2-2.08-6.92-3.52-10.6-4.64-1.73-.53-3.89.35-6.12.63-.85-2.97.56-5.6,2.6-7.81ZM118.84,271.04c-6.74-1.46-12.2-5.5-16.36-11.05-.83-1.11-.9-2.8-1.32-4.22,1.46-.23,3.08-.98,4.34-.58,2.95.94,5.88,2.16,8.52,3.77,5.89,3.6,12.1,5.68,19.06,5.46,1.66-.05,3.39.06,4.99.48,5.12,1.32,6.86,6.02,3.31,9.87-4.65,5.04-9.79,9.63-14.73,14.42-.4-.29-.8-.57-1.2-.86.34-1.48.66-2.96,1.02-4.44,1.25-5.15-1.25-11.47-7.63-12.85ZM92.35,292.03c-1.92-2.88-3.01-6.86-3.02-10.35-.02-7.37.93-14.74,1.48-22.1.15-1.97.26-3.94.39-5.91-.28-.13-.56-.26-.84-.4-1.64,2.4-3.28,4.81-4.85,7.1-1.89-3.84-.11-7.56,5.83-11.69-3.97-1.58-7.81.72-8.2,5.36-.25,2.96.37,5.99.66,8.99.13,1.32.4,2.63.65,4.22-5.23-5.3-3.67-18.5,1.7-21.9,1.5-.95,4.19-1.13,5.81-.45,1.15.49,2.03,3.05,1.99,4.66-.19,8.25,3.41,14.63,9.8,19.24,4.12,2.97,8.88,5.12,13.5,7.32,4.65,2.21,4.94,2.84,3.59,7.79-.55,2.03-.59,4.49,0,6.49,1.05,3.52,4.64,4.77,7.85,2.94,1.82-1.04,3.45-2.48,4.96-3.96,3.83-3.76,7.54-7.63,11.62-11.24-2.29,6.78-4.66,13.5-9.2,19.08-3.57,4.39-7.04,4.78-12.5,2.6-1.36-.54-3.3-.22-4.79.27-7.67,2.53-21.97-1.34-26.44-8.04ZM122.58,306.62c-.24.9-.63,2.67-2.23,2.3-2.1-.2-1.87-1.59-1.8-2.28.09-.94-.27-3.26,2.29-3.26,1.94.28,1.93,2.56,1.75,3.25ZM355.75,335.44c-61.88.44-123.75.89-185.63,1.35-53.47.4-106.94.82-160.41,1.22-.76,0-1.52-.09-2.62-.16-.62-11.1-1.22-21.81-1.83-32.68.71-.12,1.24-.29,1.77-.29,28.81-.01,57.63-.1,86.44.04,8.98.04,17.64,1.49,24.31,8.59.8.85,2.9.8,4.34.63,1.13-.13,2.32-.9,3.23-1.68,7.11-6.07,15.65-7.42,24.54-7.48,21.75-.15,43.5-.2,65.25-.28,53.92-.2,107.85-.37,161.77-.59,26.12-.11,52.24-.29,78.35-.44,3.24-.02,6.44-.12,8.79-4.18-6.95-.31-13.24-.59-20.42-.91,7.33-5.89,11.8-12.87,13.21-21.82,5.03.11,8.67,2.47,11.3,6.31,5.74,8.37,5.72,17.14.51,25.6-6.56,10.64-16.24,18.14-26.8,24.44-2.26,1.34-5.36,1.71-8.09,1.75-26.01.3-52.01.42-78.02.6ZM525.04,372.93c-8.77,12.78-20.28,22.97-31.96,32.97-11.06,9.47-22.33,18.73-32.86,28.77-9.97,9.5-14.68,21.22-11.3,35.35,1.55,6.46,1.68,15.28-.79,19.4-2.63,3.97-7.13,7.14-11.24,7.75-12.07,1.79-25.86-1.84-34.48-5.44-4.99-2.34-19.57-12.08-24.98-18.94-11.1-14.1-12.59-30.1-8.78-46.86,6.14-26.94,20.93-48.27,43.42-64.15,12.35-8.72,25.16-16.79,37.55-25.46,8.64-6.05,16.86-12.71,23.01-21.45,8.53-12.13,11.87-29.41-5.6-42.28-1.62-1.2-3.23-2.41-4.85-3.61-6.79-5.04-14.16-9.48-18.52-17.27.62,1.89,1.24,3.78,1.85,5.67,1.51,4.68,3.52,9.27,4.43,14.06,2.18,11.61-3.67,24.26-17.87,26.59-3.64.6-7.34,1.19-11.01,1.18-38.57-.08-77.13-.31-115.7-.41-2.51,0-3.44-1.16-3.73-3.29-.66-4.92.99-9.26,5.25-11.49,3.95-2.07,8.51-3.58,12.94-4.06,17.65-1.93,34.86.49,51.54,6.56,3.05,1.11,5.27.13,6.97-2.34,2.11-3.07,2.21-6.45.23-9.49-1.56-2.4-3.64-4.52-5.72-6.52-6.13-5.9-12.78-11.31-18.48-17.59-12.21-13.47-17.61-29.26-13.6-47.44,1.09-4.94,3.17-9.66,4.79-14.48-2.56,2.76-5.12,5.64-6.84,8.95-7.63,14.69-6.99,29.56-.12,44.31,6.43,13.8,17.05,23.99,29.05,32.92.98.73,1.88,1.57,3.19,2.68-7.71,1.11-14.53,0-21.35-1.46-10.6-2.28-21.19-5.31-32.27-1.14-.59-15.67-1.17-31.01-1.74-46.35-1.51,7.21-2.29,14.42-3.06,21.62-.7,6.46-1.28,12.94-2.13,19.38-.43,3.25-1.21,6.45-5.15,7.47-5.65,1.47-9.13,5.36-10.22,10.89-.66,3.35-.12,6.94-.12,10.74-3.95,2.03-9,.92-11.58-2.95-2.65-3.98-1.74-9.65,2.38-12.57,5.29-3.74,8.25-8.9,9.26-15.04.87-5.28,1.4-10.69,1.31-16.03-.47-27.01-1.21-54.01-1.83-81.02-.12-5.44.25-5.78,5.47-6.84,22.14-4.48,39.25-16.4,51.31-35.4,3.26-5.14,5.63-10.85,8.49-16.46,19.62,8.86,39.07,18.49,56.75,31.3,14.54,10.53,27.62,22.54,37.11,37.98,10.99,17.87,14.42,36.71,6.7,56.83-.2.53-.18,1.16-.33,2.25,4.06-2.56,4.13-6.51,4.98-9.96.87-3.51,1.33-7.13,1.98-10.75,3.22,4.33,5.89,8.96,9.53,12.65,9.44,9.55,19.2,18.79,29.03,27.95,9.46,8.81,19,17.63,25.05,29.21,14.99,28.68,12.92,56.5-5.35,83.1Z" style="stroke-width: 0px;"/>
      </g>
      <path id="_пена" data-name="пена" d="M140.74,276.16c-4.17,4.34-8.75,8.29-13.15,12.41l-.93-.75c.31-1.59.7-3.17.92-4.77.79-5.66-1.74-9.84-7.2-11.31-6.83-1.84-12.34-5.65-16.8-10.96-1-1.19-1.08-3.17-1.58-4.79,1.53-.17,3.06-.44,4.59-.48.8-.01,1.71.21,2.38.63,8.75,5.36,17.95,8.64,28.45,9.19,6.8.35,8.17,5.79,3.32,10.83Z" style="fill: #fbbc05; stroke-width: 0px;"/>
      <path id="_нос" data-name="нос" d="M255.51,95.63c1.68-.12,4.14-.67,5.49-.83,1.01-.12,2.21-.15,2.74.95.71,1.49-.18,2.9-.88,3.6-.92.92-2.89,2.52-3.65,3.68-.54.83-.58,2.17-.58,3.25,0,.72-.06,2.91-1.66,3.25s-2.69-.99-3.05-1.67c-.61-1.16-1.28-3.1-2.14-4.02-.68-.72-2.57-1.48-3.37-2.07s-1.34-1.93-1.23-3.02c.21-1.97,1.78-2.62,2.74-2.85,1.43-.35,3.8-.14,5.59-.27Z" style="fill: #ffb61d; stroke-width: 0px;"/>
      <path id="_тень_хвост" data-name="тень хвост" d="M430.93,482.77c1.1-21.73,8.2-41.41,20.68-59.12,11.55-16.39,25.19-30.97,40.72-43.61,11.25-9.15,23.23-17.4,34.89-26.05.26-.2.46-.59.74-.65,2.73-.62,5.47-1.18,8.21-1.76-.43,2.45-.38,5.12-1.37,7.32-7.55,16.75-19.84,29.76-33.49,41.62-12.55,10.9-25.43,21.43-37.73,32.6-11.62,10.56-16.99,23.4-12.8,39.47,1.13,4.34,1.19,9.47,0,13.75-1,3.58-3.91,7.54-7.1,9.39-7.38,4.28-12.09,1.16-12.73-7.47-.13-1.82-.02-3.66-.02-5.49Z" style="fill: #e7eaee; stroke-width: 0px;"/>
    </g>
  </g>
</svg>