<?xml version="1.0" encoding="UTF-8"?>
<svg id="_Слой_2" data-name="Слой 2" xmlns="http://www.w3.org/2000/svg" viewBox="0 0 538 561.52">
  <g id="_Слой_1-2" data-name="Слой 1">
    <g>
      <g>
        <g id="dog">
          <g id="_щит" data-name="щит">
            <path d="M486.95,109.37c-11.06-20.8-84.4-66.06-215.56-66.06-133.83,0-204.5,44.68-215.56,65.48-20.98,39.45-5.96,178.58-5.96,178.58,0,0,11.39,108.71,73.22,177.73,57.89,64.63,148.3,93.28,148.3,93.28,0,0,90.4-28.06,148.3-92.69,61.82-69.02,73.22-177.73,73.22-177.73,0,0,15.02-139.13-5.96-178.58Z" style="fill: #fbbc05; stroke-width: 0px;"/>
            <path d="M489.61,107.96c-12.54-23.59-89.43-67.66-218.22-67.66-136.58,0-207.04,46.06-218.22,67.08-21.16,39.8-6.91,174.59-6.29,180.3.03.27,2.99,27.86,13.53,63.52,9.74,32.96,28.13,79.83,60.44,115.9,6.07,6.77,12.49,13.16,19.15,19.16,1.25,1.14,2.52,2.26,3.79,3.37.06-1.39.07-2.78.03-4.16-.04-1.33-.09-2.65-.16-3.98-1.25-1.14-2.49-2.28-3.72-3.46-5.05-4.73-9.94-9.72-14.62-14.93-60.44-67.48-72.35-174.97-72.47-176.06-.15-1.38-14.68-138.65,5.63-176.85,5.33-10.01,25.99-25.99,60.17-39.15,29.32-11.28,79.63-24.74,152.74-24.74s122.1,13.61,151.74,25.03c17.46,6.73,31.44,14.11,41.7,21.04,10.26,6.94,16.83,13.44,19.47,18.4,20.3,38.19,5.78,175.48,5.63,176.87-.1.93-9.02,81.63-50.69,147.09-1.01,1.59-2.04,3.18-3.1,4.75.44,2.89.88,5.77,1.33,8.65,1.02-1.44,2.03-2.9,3.01-4.36,21.09-31.22,34.19-65.94,41.89-91.99,10.53-35.65,13.5-63.24,13.53-63.51.62-5.72,14.88-140.5-6.29-180.31ZM302.24,546.47c-.45-.83-.71-1.76-1.01-2.92-.68.3-1.36.59-2.02.88-.43,3.19-.19,6.1-4.92,5.58-2-.22-2.91-1-3.3-2.12-3.78,1.55-7.15,2.86-10,3.92-4.75,1.79-8.08,2.92-9.58,3.41-7.25-2.44-56.76-19.77-103.63-54.15-1.53-1.12-3.05-2.26-4.58-3.42.11,2.61.26,5.21.44,7.82,1.32.99,2.65,1.95,3.98,2.9,50.26,35.89,102.17,52.64,102.86,52.86l.9.29.9-.28c.28-.09,9.06-2.87,22.77-8.55,2.68-1.1,5.56-2.33,8.58-3.66-.51-.84-.96-1.76-1.39-2.56ZM421.62,458.87c-.79.95-1.59,1.89-2.41,2.82-.58.67-1.16,1.33-1.75,1.99-30.91,34.5-71.55,58.6-102.27,73.43-1.85.89-3.66,1.75-5.44,2.58.52,1.26,1.04,2.52,1.4,3.79.16.58.38,1.23.6,1.88,1.5-.7,3.02-1.42,4.59-2.16,31.36-15,73.43-39.7,105.39-75.3.07-.07.13-.15.2-.22.8-.9,1.6-1.8,2.38-2.71-.82-2.06-1.72-4.09-2.69-6.1Z" style="fill: #323232; stroke-width: 0px;"/>
          </g>
          <path id="_тень" data-name="тень" d="M217.04,103.67c3.63-5.46,7.22-11.16,11.13-16.64,2.59-3.62,5.51-7.05,8.57-10.32,1.48-1.58,3.29-2.61,5.51-.11,11.58,13.05,22.79,26.53,24.29,44.27.7,8.36-1.44,17.04-3.08,25.44-1.18,6.04-4.07,20.79-5.45,26.81-2.15,9.33-.35,17.94,7.5,24.52,13.61,11.4,26.86,23.28,41.23,33.73,9.83,7.14,21.51,11.88,32,18.26,15.64,9.52,32.64,17.45,45.02,31.12,7.25,8,15.41,14.64,24.46,20.55,12.79,8.36,26.66,9.35,42.11,8.1,7.17-.58,10.51.75,17.76,1.37,5,.43,7.55,3.6,8.22,8.05.67,4.44-2.79,6.48-6.26,7.93-17.72,7.42-31.56,10.09-49.43,2.6-.62-.26-1.19-.86-1.8-.89-2.05-.1-4.11-.01-6.17,0,.43,1.76.46,3.73,1.34,5.24,8.4,14.27,7.69,30.03,11.29,45.73,4.05,17.64,6.17,35.68,9.53,53.48.92,4.9,3.84,9.46,4.82,14.36,2.57,12.79,4.58,25.68,6.8,38.53,2.4,13.87,5.56,27.53,13.07,39.81,2.07,3.38,1.66,6-1.42,7.78-3.17,1.84-5.83.31-6.94-1.89-2.44,1.47-5.25,4.47-7.25,4.03-2.33-.51-3.95-4.01-5.97-6.33-.73,1.02-1.62,3.21-3.29,4.36-1.8,1.24-4.47,2.26-6.48,1.91-1.19-.2-2.66-3.29-2.58-5.01.28-5.67,1.68-11.31,1.78-16.97.12-6.65-.42-13.34-1.1-19.97-.69-6.71-2.36-13.35-2.79-20.06-.98-15.08-5.51-28.95-14.2-41.53-11.85-17.15-24.06-34.07-35.59-51.41-7.16-10.77-12.36-15.84-25.16-15.11-9.4.54-18.73,2.56-28.05,4.1-3.73.62-2.76,3.49-2.42,5.85,1.59,11.16,3.89,22.27,4.64,33.47.64,9.58-.56,19.27-.78,28.91-.48,21.76-3.57,43.52-4.11,65.27-.23,9.32-2.2,21.02-2.52,30.34-.11,3.24.22,6.51.61,9.74.37,3.02-.88,4.75-3.64,6.14-10.96,5.52-18.7,3.37-30.58,2.45-3.83-.3-6.42-6.31-4.85-11.18,1.65-5.13,4.04-10.04,5.64-15.18,2.46-7.91,4.99-15.85,6.6-23.93,1.27-6.37,1.26-12.98,1.65-19.5.12-2.03-.3-4.09-.47-6.14-.42-.1-.85-.21-1.27-.31-1.04,1.91-2.54,3.71-3.04,5.73-2.03,8.27-5.85,15.56-11.73,21.93-3.37,3.65-11.06,5.15-15.89,3.55-2.75-.91-5.95-.91-8.92-.77-5.45.25-7.44-1.24-6.91-6.38.94-9.17,6.11-16.02,13.34-21.72,2.89-2.28,5.91-4.54,8.25-7.29,4.52-5.32,6.8-11.09,5.67-18.52-3.17-20.84-6.64-41.69-5.72-62.9.3-6.92-.85-7.91-8.16-9.24-22.3-4.07-42.82-11.91-60.59-25.82-4.59-3.59-5.93-3.1-7.95,2.36-5.18,14.05-9.01,28.24-9.36,43.41-.26,11.53.22,23.58-.88,35.12-2.2,23.07-7.11,46.01-3.89,69.37.27,1.98-.48,4.1-.82,6.14-1.36,8.06-2.67,16.13-4.13,24.17-1.22,6.71-6.04,11.06-11.22,15.11-.37.29-.97.63-1.34.53-8-2.2-14.92,2.91-22.58,3.05-4.35.08-12.42-4.7-13.85-8.54-.17-.44-.25-.99-.14-1.44,2.32-9.88,5.62-19.54,13.44-26.61,2.95-2.67,3.71-5.57,4.9-8.67,1.96-5.05,2.37-30.83,2.26-31.67-2.54-20.24-5.5-40.45-7.24-60.75-.75-8.83-1.9-18.46-1.83-27.4.11-13.39.65-26.92-1.07-40.14-3.03-23.29-1.05-45.82,5.89-68.25,3.79-12.23,8.2-23.87,18.1-32.87,1.46-1.33,3.06-2.52,4.69-3.65,4.09-2.84,4.62-6.84.24-9.09-15.59-8.01-20.72-20.55-19.67-36.79.35-5.38-1.82-10.89-2.72-16.36-2.14-13.07-1.12-35.03,1.48-47.97,3.12-15.53,9.61-29.84,17.31-43.62,2.16-3.86,6.46-7.18,10.57-9.35,5.76-3.03,11.33-1.09,15.34,3.91.41.51.76,1.08,1.09,1.65,4.55,7.64,9.91,13.58,20.45,13.56,4.66,0,9.33,2.72,14.72,4.44Z" style="fill: #fff; stroke-width: 0px;"/>
          <g id="_собака" data-name="собака">
            <g>
              <path d="M469.39,318.51c-.38-4.12-3.62-6.27-7.63-6.54-2.96-.2-5.97.31-8.95.38-8.56.23-17.42,1.88-25.63.27-14.25-2.8-25.87-9.91-32.77-24.11-5.81-11.99-14.16-22.71-26.09-29.52-19.92-11.37-41.28-19.45-63.23-25.98-.44-.13-.99.15-2.6.43,2.17,1.12,3.26,1.8,4.44,2.28,13.99,5.62,28.03,11.1,41.98,16.83,16.55,6.82,30.46,16.81,39.28,32.97,15.81,28.98,31.04,58.22,38.51,90.71,3.25,14.16,7.71,28.11,7.44,42.95-.1,5.85.71,11.78,1.6,17.59.14.9.28,1.81.41,2.71.44,2.89.88,5.77,1.33,8.65,2.47,16.01,5.03,32.01,7.73,47.97,1.23,7.28,2.81,14.56,5,21.61.97,3.16,4.33,5.52,5.66,8.65.85,2-.01,4.74-.11,7.14-1.75-.84-3.66-1.45-5.2-2.59-1.3-.96-2.16-2.51-4.04-4.8-.21,2.85-.16,4.32-.47,5.71-.37,1.64-1.04,3.21-1.58,4.82-1.42-1.41-3.35-2.59-4.12-4.29-.84-1.85-.61-4.19-.85-6.32-1.87,1.9-3.08,3.82-3.27,5.83-.3,3.2-2.1,5.01-4.72,4.13-1.21-.41-2.47-4.2-1.89-5.8,3.03-8.34,4.01-16.71,2.24-25.42-.46-2.27-.95-4.59-.96-6.88-.02-11.52-2.37-22.51-6.56-32.92-.82-2.06-1.72-4.09-2.69-6.1-.56-1.15-1.13-2.29-1.73-3.43-17.16-32.55-38.24-62.61-60.32-91.97-6.16-8.19-15.7-11.39-24.94-14.61-.22.36-.45.73-.68,1.09,7.26,4.82,14.52,9.63,21.77,14.44-.23.48-.47.96-.7,1.44-12.45.35-24.06,3.98-35.49,8.51-1.05.41-3.69-1.39-4.62-2.8-2.36-3.59-4.16-7.55-6.68-12.26-.23,1.59-.42,1.98-.31,2.22,7.9,17.32,8.08,35.81,7.84,54.25-.2,15.78-1.01,31.57-2.03,47.32-.86,13.43-2.51,26.8-3.62,40.21-.85,10.12-1.71,20.25-1.91,30.38-.04,2,.74,4.01,1.56,6.03.52,1.26,1.04,2.52,1.4,3.79.16.58.38,1.23.6,1.88.52,1.64.99,3.33.39,4.24-.99,1.47-4.28,2.67-5.93,2.12-1.03-.34-1.86-1.44-2.58-2.69-.51-.84-.96-1.76-1.39-2.56-.45-.83-.71-1.76-1.01-2.92-.22-.85-.45-1.82-.79-2.97-.78,1.19-1.06,2.54-1.23,3.85-.43,3.19-.19,6.1-4.92,5.58-2-.22-2.91-1-3.3-2.12-.61-1.75.07-4.34-.17-6.88-.94,2.49-1.39,3.71-1.86,4.91-1.34,3.4-4.3,3.92-6.93,2.63-.87-.42-.59-3.93-.24-5.92.27-1.55,1.48-2.93,2.25-4.4,6.14-11.75,10.27-24.07,10.61-37.45.44-17.49.27-35.01,1.36-52.45,1.19-19.18-1.52-37.95-12.59-53.19-13.95-19.19-30.82-36.27-46.42-54.25-.58.46-1.16.92-1.73,1.39,10.28,13.02,20.56,26.05,30.85,39.08-.24.51-.47,1.02-.7,1.54-10.31-2.14-20.74-3.81-30.9-6.51-14.76-3.92-26.63-13.28-38.84-21.92-9.45-6.68-19.35-10.92-31-4.56,1.59-.33,3.17-.7,4.77-.97,1.8-.32,3.61-.78,5.42-.73,1.37.04,3.21.4,3.93,1.33.63.81.29,2.73-.18,3.95-.81,2.15-2.16,4.09-3.08,6.22-9.24,21.32-9.77,44.21-11.73,66.8-.81,9.44-.25,18.99-.55,28.48-.44,14.24-.69,28.46-.05,42.66.11,2.61.26,5.21.44,7.82.39,5.59.93,11.18,1.67,16.77,1.44,10.85-.42,21.39-10.72,28.1-1.49.96-3.83.61-5.78.87.29-2.09.34-4.25.94-6.25.38-1.28,1.55-2.33,2.61-3.81-4.43.62-10.61,5.25-10.34,8.42.18,2.19,2.3,4.82,4.31,6.04,1.47.9,4.24.17,6.27-.41,9.91-2.87,16.86-12.4,16.77-23.95-.06-7.59-1.88-15.19-1.74-22.76v-.12c.05-2.43.1-4.87.15-7.3.4-18.65,1.02-37.29,2.11-55.91.99-16.9,3.09-33.73,4.56-50.6,1.11-12.81,3.49-25.2,9.7-36.71,2.18-4.05,4.04-4.02,7.27-1.54,5.39,4.16,10.97,8.06,16.41,12.17,17.77,13.45,37.71,20.32,60.07,20.51,2.64.02,6.41,1.88,7.72,4.06,9.69,16.03,14.98,33.43,15.3,52.31.2,11.81,1.37,23.63,1.21,35.43-.18,12.43-.24,25.08-2.61,37.19-1.67,8.51-7.33,16.19-10.8,24.4-.97,2.29-1.66,6.29-.45,7.53.73.75,1.67,1.39,2.73,1.9,1.82.9,3.97,1.42,5.87,1.49,2.72.11,5.46-.22,8.2-.61,1.91-.26,3.83-.56,5.76-.75.56-.06,1.35.28,1.75.7,3.59,3.8,7.59,2.82,11.23.53,3.84-2.43,3.34-5.95,2.54-9.97-.04-.18-.07-.36-.11-.54-.37-1.83-.73-3.69-1.04-5.55-.87-5.15-1.42-10.38-1.17-15.5.62-13.09,2.44-26.11,3.64-39.17,1.03-11.09,2.13-22.17,2.76-33.29.53-9.43.82-18.91.51-28.35-.37-11.45-1.62-22.87-2.13-34.32-.08-1.85,1.27-5,2.68-5.5,9.5-3.34,19.08-6.55,28.84-8.94,6.39-1.55,11.92-.21,16.15,6.42,14.54,22.8,30.12,44.95,44.5,67.84,3.17,5.04,5.92,10.17,8.23,15.39.91,2.06,1.76,4.13,2.52,6.21,7.23,19.37,8.55,39.86,3.49,61.36-.41,1.74-.78,4.02-.01,5.39,1.16,2.05,3.62,5.16,5.06,4.92,4.65-.78,9.06-1.85,13.69.02.71.28,1.84-.65,2.81-.83,1.76-.33,3.59-.87,5.33-.67,3.44.39,6.48,0,8.08-3.38,1.68-3.56,1.41-7.06-1.39-10.17-5.42-6.01-8.06-13.24-8.95-21.16-.89-7.91-1.32-15.89-2.6-23.74-1.81-11.06-4.47-21.97-6.29-33.03-.16-.95-.31-1.89-.46-2.84-.46-3.01-.87-6.02-1.24-9.04-.55-4.58-.98-9.17-1.29-13.76-1.39-21.09-6.08-41.54-12.02-61.69-3.22-10.91-7.7-21.45-11.65-32.27.5-.07,1.18-.35,1.78-.22,1.94.4,3.92.76,5.76,1.48,14.16,5.61,27.97,3.32,41.74-1.52,3.95-1.39,6.22-4.3,5.85-8.24ZM451.84,326.39c-14.23,4.34-27.56-.03-39.89-6.16-4.41-2.19-6.35-9.35-9.41-14.24.59-.28,1.17-.56,1.76-.85,14.57,10.99,30.58,15.32,48.67,10.94,7.09-1.71,10.26-.44,12.92,4.18-3.19,5.38-9.15,4.64-14.05,6.13Z" style="fill: #323232; stroke-width: 0px;"/>
              <path d="M191.44,90.65c-2.02-3.69-4.13-7.34-6.05-11.08-5.95-11.65-9.15-12.31-18.71-3.35-14.23,13.35-21.7,30.17-25.19,49.1-2.66,14.42-4.9,28.86-3.99,43.56.77,12.43,1.85,24.84,3.12,37.23.6,5.84,4.47,9.68,9.18,12.96,12,8.35,24.71,7.93,38.11,4.23,17.57-4.84,30.21-15.89,41.09-29.92,14.56-18.77,27.1-38.41,33.3-61.73,2.33-8.74,1.8-16.91-1.81-24.68-5.65-12.18-12.11-23.98-18.29-35.91-.5-.96-1.47-1.68-2.77-3.13-8.39,10.65-8.85,23.59-12.7,35.69,5.17,2.59,10.41,5.21,15.64,7.83-.18.47-.35.95-.53,1.42-1.85-.54-3.72-1.01-5.54-1.64-11.24-3.86-22.29-8.41-33.74-11.44-11.83-3.12-23.73-1.19-35.19,3.03-1.39.51-2.82.9-4.44.62,8.85-6.1,18.62-9.9,29.36-8.6,10.45,1.26,20.75,3.84,31.01,5.81,1.25-6.91,2.64-14.68,4.04-22.45-.21-.24-.42-.47-.62-.71-5.55,6.25-11.11,12.5-16.66,18.75-.61-.5-1.22-.99-1.82-1.49,2.56-3.88,4.68-8.16,7.76-11.56,5.82-6.41,12.15-12.36,18.35-18.43,3.03-2.96,7.08-3.04,8.9.36,7.98,14.87,16.25,29.64,23.18,45,4.86,10.79,2.75,22.28-2.09,32.84-10.55,22.99-22.41,45.51-39.48,64.22-16.99,18.62-44.74,30.99-68.71,21.64-13.99-5.46-20-14.18-20.55-29.09-.54-14.61-1.66-29.2-2.52-43.8-.98-16.7,3.28-32.43,8.32-48.16,5.05-15.75,14.12-28.36,27.11-38.34,6.15-4.72,12.56-3.64,16.35,3.13,3.1,5.54,5.55,11.44,8.29,17.18-.57.3-1.14.6-1.7.9Z" style="fill: #323232; stroke-width: 0px;"/>
              <path d="M250.74,191.28c-2.42,3.96-4.17,8.55-7.31,11.82-14.22,14.8-29.38,28.59-46.85,39.56-7.34,4.61-16.73,3.82-22.86-1.45-1.82-1.57-3.26-3.57-5.04-5.54-3.64,4.83-6.85,9.49-10.47,13.78-5,5.91-9.19,12.16-11.22,19.76-.72,2.7-1.98,5.29-3.22,7.82-8,16.39-11.02,33.65-9.57,51.81.81,10.09,1.86,20.24,1.56,30.32-.47,15.46-3.19,30.93-2.77,46.33.5,18.04,2.79,36.1,5.33,54,.88,6.21,1.44,12.38,1.64,18.54.09,2.74.11,5.49.06,8.23-.16,8.39-1.01,16.76-2.63,25.14-.99,5.15-2.74,10.22-8.02,12.47-8.99,3.82-11.94,11.6-13.55,20.1-1.16,6.12,3.39,10.59,7.77,9.43-1.03-2.91-3.24-6-2.88-8.76.8-6.13,3.14-11.91,8.89-15.49,5.99-3.72,9.74-9.19,10.87-16.04,1.29-7.78,3.03-15.67,3.34-23.48.06-1.39.07-2.78.03-4.16-.04-1.33-.09-2.65-.16-3.98-.63-14.26-2.19-28.53-4.16-42.67-2.07-14.9-2.81-29.59-1.6-44.69,1.43-17.7.64-35.58.8-53.39.1-12.11-1.45-24.51.59-36.28,3.64-21.11,11.68-40.82,25.48-57.75,3.89-4.77,3.63-4.84,7.73-.66,1.71,1.75,3.83,3.09,6.23,4.98-3.53,4.1-5.65,8.36-2.98,13.38.85,1.61,2.89,4.23,3.52,4,2.15-.79,4.76-2.25,5.63-4.16,1.25-2.75,1.4-6.1,1.52-9.22.13-3.11,1.11-4.68,4.37-5.56,3.77-1.03,7.48-2.73,10.83-4.76,16.16-9.77,29.05-23.36,41.99-36.8,5.47-5.69,9.62-12.43,10.4-20.72-1.39,1.18-2.37,2.61-3.27,4.09ZM182.31,254.15c-.95,1.27-1.86,1.3-2.69,2.13-.6.59-1.24,1.67-1.21,3.82l.35,4.26c.48,1.47.77,2.5.64,2.55-.16.06-.99-1.42-.99-1.42,0,0-.53-1.43-1.52-4.11-.1-1.09-.13-3.27,1.06-5.49.36-.68,1.52-2.63,3.65-3.51.32-.13,1.15-.48,1.42-.18.3.34-.26,1.34-.71,1.95Z" style="fill: #323232; stroke-width: 0px;"/>
              <path d="M159.91,149.23c-3.67.83-7.35,1.65-11.02,2.48-4.45,1-5.85,4.01-5.14,8.17.64,3.74,1.43,7.45,2.3,11.14,2.42,10.18,5.91,8.96,13.75,8.43,2.23-.15,4.64-1.01,6.54-2.21,4.24-2.69,9.17-4.84,10.19-10.73,1.83-10.49-4.27-16.73-16.62-17.28ZM167.94,166.16c-1.22-3.12-2.33-5.96-3.54-9.04,2.68-1.74,4.63-1.18,6.09,1.42,1.67,2.96,1.79,5.57-2.54,7.62Z" style="fill: #323232; stroke-width: 0px;"/>
              <path d="M270.77,391.13c1.61,10.39,3.37,20.76,4.77,31.17,1.01,7.55,1.41,15.17,2.3,22.74,2.05,17.49-3.65,31.54-18.21,41.76-2.31,1.62-5.05,2.78-6.96,4.76-2.13,2.21-4.28,4.91-5.03,7.77-.55,2.11,1.13,4.81,2.08,8.19-1.32-.21-3.64.06-4.81-.96-1.2-1.04-2.03-3.53-1.71-5.11,1.59-7.73,7.23-12.33,13.45-16.5,3.55-2.38,7.16-4.88,10.07-7.96,6.15-6.51,5.97-14.91,5.46-23.06-.92-14.9-2.15-29.79-3.4-44.67-.33-3.94-1.42-7.82-1.75-11.75-.18-2.17.49-4.41.78-6.62.99.08,1.97.17,2.96.25Z" style="fill: #323232; stroke-width: 0px;"/>
              <path d="M307.36,280.68c-4.76-5.97-4.77-14.85-6.46-23.18-1.28-6.31-2.28-12.68-3.39-19.02-1.34-7.64-5.48-13.52-11.87-17.63-12.48-8.03-22.48-18.21-27.92-32.16-1.98-5.07-2.71-10.63-3.27-16.15,1.65,17.21,12.35,28.41,25.1,38.27,2.62,2.03,5.35,3.92,8.12,5.76,8.97,5.95,12.85,14.52,14.04,25.01,1.53,13.41,3.82,26.72,5.64,39.12Z" style="fill: #323232; stroke-width: 0px;"/>
              <path d="M192.28,180.2c-1.37.24-2.88.18-4.08.77-7.59,3.74-15.33,7.24-22.59,11.56-7.67,4.57-11.81,1.93-14.4-5.83.86,3.51,1.72,7.38,4.08,9.76,3.47,3.5,7.96,2.28,11.94-.08,3.82-2.26,7.62-4.57,11.43-6.86,1.36,2.66,2.52,4.93,4.38,8.56,1.48-3.41,3.1-5.53,3.19-7.71.2-4.45,1.46-7.65,6.64-8.41-.2-.59-.4-1.17-.6-1.76ZM184.15,193.91c-.16.48-.99,1.77-.99,1.77,0,0-3.9-5.19-3.26-7.01.49-1.4,5.03-2.97,5.33-2.62.99,1.14-.44,5.98-1.07,7.86Z" style="fill: #323232; stroke-width: 0px;"/>
              <path d="M199.66,133.5c10.27.54,20.13,1.06,30.81,1.63-6.41,7.57-14.17,8.55-22.47,7.43-4.71-.64-7.27-3.44-8.34-9.06Z" style="fill: #323232; stroke-width: 0px;"/>
              <path d="M167.75,133.86c-4.53,2.13-8.92,4.64-13.62,6.27-4.14,1.44-9.74-2.63-10.38-6.95-.36-2.41.15-4.57,3.22-4.25,6.81.71,13.6,1.63,20.39,2.47.13.82.26,1.64.39,2.47Z" style="fill: #323232; stroke-width: 0px;"/>
              <path d="M273.6,496.01c-1.22,1.31-2.79,2.45-3.56,3.99-.72,1.44-1.37,3.96-.65,4.8.85.99,3.88,1.53,4.79.81,2.88-2.3,6.44-4.87,7.51-8.08,2.43-7.29,3.55-15.01,5.14-22.57.38-1.79.55-3.62,1.87-5.42.3.86.96,1.77.84,2.56-1.22,7.99-2.35,16-3.94,23.91-1.15,5.73-5.18,9.72-10.17,12.19-2.08,1.03-5.51.81-7.62-.24-1.34-.67-2.19-4.09-1.83-6,.69-3.62,3.23-6.12,7.61-5.94Z" style="fill: #323232; stroke-width: 0px;"/>
              <path d="M142.9,540.61c-1.9,1.36-4.17,2.41-5.59,4.16-1.41,1.73-2.61,4.17-2.59,6.28.01.99,3.13,1.94,4.85,2.91-1.43,2.62-4.69,3.33-8.04,1.22-2.39-1.51-3.2-6.83-.7-9.33,2.91-2.92,6.59-5.07,9.94-7.55.71.77,1.43,1.54,2.14,2.32Z" style="fill: #323232; stroke-width: 0px;"/>
              <path d="M266.11,493.11c-2.03,2.35-3.43,4.18-5.03,5.8-2.8,2.84-4.26,5.35.83,7.3.64.24,1.02,1.17,1.52,1.77l-.7,1.41c-2.08-.95-4.84-1.41-6.05-3.01-1.08-1.43-1.28-4.57-.42-6.2,1.81-3.44,3.92-7.28,9.87-7.07Z" style="fill: #323232; stroke-width: 0px;"/>
            </g>
          </g>
        </g>
        <path d="M98.96,485.7l30.34,16.42-30.34,16.55-16.6,30.06-16.6-30.06-30.34-16.55,30.34-16.42,16.6-30.19,16.6,30.19Z" style="fill: #fbbc05; stroke-width: 0px;"/>
        <path d="M521.5,370.73c11.16,1.84,18.36,13.73,16.08,26.56-1.34,7.52-5.64,14.24-11.21,18.71l-1.55,25.23c-.15,2.42-2.72,4.56-4.32,3.56l-9.94-6.72-12.72,10.41c-2.04,1.74-4,.12-3.29-2.73l7.26-28.95c-4.07-4.84-5.99-12.77-4.65-21.72,2.28-15.28,13.18-26.18,24.35-24.34ZM513.23,421.64c-2.67.15-5.11-.38-7.24-1.48l-4.82,18.8,9.14-7.2c.9-.68,1.9-.78,2.6-.25l7.14,5.1,1.03-17.16c-2.52,1.26-5.18,2.04-7.84,2.19ZM520.46,377.1c-8.37-1.15-16.55,7.03-18.26,18.26-1.71,11.23,3.69,20.15,12.06,19.92,2.95-.08,5.87-1.19,8.49-3.01.14-.12.28-.22.44-.31,4.63-3.29,8.26-8.75,9.33-14.94,1.71-9.85-3.69-18.77-12.06-19.92Z" style="fill: #323232; fill-rule: evenodd; stroke-width: 0px;"/>
        <path d="M15.44,223.28c-10.45,1.72-17.19,12.85-15.05,24.86,1.25,7.04,5.28,13.33,10.49,17.51l1.45,23.61c.14,2.27,2.55,4.27,4.04,3.33l9.31-6.29,11.91,9.74c1.91,1.63,3.74.12,3.08-2.56l-6.79-27.09c3.81-4.53,5.6-11.95,4.35-20.33-2.14-14.3-12.34-24.5-22.79-22.78ZM23.18,270.93c2.5.14,4.78-.35,6.78-1.38l4.51,17.59-8.55-6.74c-.84-.64-1.78-.73-2.43-.24l-6.68,4.77-.96-16.06c2.36,1.18,4.84,1.91,7.34,2.05ZM16.41,229.24c7.84-1.08,15.49,6.58,17.09,17.09,1.6,10.51-3.45,18.86-11.29,18.65-2.76-.08-5.49-1.11-7.95-2.82-.13-.11-.27-.21-.41-.29-4.33-3.08-7.73-8.19-8.74-13.98-1.6-9.22,3.45-17.57,11.29-18.65Z" style="fill: #323232; fill-rule: evenodd; stroke-width: 0px;"/>
      </g>
      <circle cx="452.94" cy="28.63" r="28.63" style="fill: #fbbc05; stroke-width: 0px;"/>
    </g>
  </g>
</svg>